<?xml version="1.0" encoding="UTF-8"?>
<svg id="Layer_3" xmlns="http://www.w3.org/2000/svg" version="1.1" viewBox="0 0 991.7 249.3">
  <!-- Generator: Adobe Illustrator 29.1.0, SVG Export Plug-In . SVG Version: 2.1.0 Build 142)  -->
  <defs>
    <style>
      .st0 {
        fill: #00609d;
      }
    </style>
  </defs>
  <g>
    <g>
      <path class="st0" d="M41.3,233.9s0,0,.1,0c-.1,0,0,0-.1,0Z"/>
      <path class="st0" d="M50.5,231.8c-.3,0-.6-.2-.9-.4,0,.1,0,.2-.3.1h.4c.4.3.6.3.9.3Z"/>
      <path class="st0" d="M65.3,219.3v-.5c0,.1,0,.3,0,.5Z"/>
      <path class="st0" d="M65.2,220.1h0s0,0,0,0Z"/>
      <path class="st0" d="M67.9,215.6s0,0,0,0h0s0,0,0,0Z"/>
      <path class="st0" d="M66.8,216.9c0,.4,0,.8.1.8,0,0,0,.2,0,.4,0,.1,0,.2,0,.3,0,0,0,.1,0,.1,0,0,0-1.9-.2-1.1,0,.4,0,.7,0,1,0,.3,0,.6,0,.9,0,.1,0,.3,0,.4,0,.1,0,.3,0,.4,0,.3,0,.6,0,1,.2-.2.2-.7.3-1.3,0-.6,0-1.2.2-1.7,0,.4,0,.8,0,1.1,0-.5.1-.9,0-1.4,0-.5,0-1,0-1.5v-.2c0,.4,0,.7,0,.9,0,.2,0,.4,0,.4,0-.5,0-.9-.2-1.2,0-.3-.2-.5-.3-.5v.2s0-.3,0-.3c0,.3,0,.5,0,.8,0-.2.2,0,.3.5Z"/>
      <path class="st0" d="M53.4,210.7h-.3c0-.1-.2-.1-.4,0,0,0-.2,0-.3,0,0,0-.1,0-.1,0,.2,0,.8.1,1.2.2,0,0,.3,0,.7,0,.4,0,.8,0,1,0,0,0-.2,0-.5-.2-.1,0-.2,0-.3-.1,0,0-.2,0-.2,0,.1,0,.5.2,1,.3.4.1.9.3,1.1.4,0,0-.8-.5-1-.4,0-.1,1,.3.3,0,.2,0,.4.1.7.2.2.1.5.2.7.4.2.2.4.3.6.4.2.1.3.3.4.4v.2c.2.2.3.3.4.3.1,0,.3.1.5.5-.7-.7,0,.2-.6-.3,0,.1,0,.1,0,.2,0,0,.1.2.3.5.3.2.4.4.5.5,0,.2.2.4.4.6.1.4-.3-.3,0,.4.5.7.5.7.7.7-.3-.8-.6-.8-.9-1.4,0,0,0,0,.2.2,0,.1.2.2.3.4.1.1.2.3.3.4,0,.1.1.2.1.2,0-.3-.1-.4-.2-.6.2.2.3.5.4.6,0,0,.1.2.2.3-.1-.4-.3-.7-.4-1-.1-.3-.2-.5-.2-.5h.1c0-.2-.4-.6-.6-.8l.2.3c0,0-.2-.2-.2-.3,0,0,0,0,0,0-.2-.3-.5-.6-.7-.8-.2-.2-.4-.4-.4-.5h.3c-.7-.5-.8-.5-1.8-1.1.1,0,.1,0,.1,0-2.2-.9-4-.9-5.2-.9.2,0,1.3.2,1.8.4,0,0-.4,0-.4,0ZM60.4,214.8c-.2-.2-.3-.4-.4-.6,0,0,0-.2,0-.4.2.4.3.7.5.9ZM54.5,210.8c-.1,0-.5,0-.5,0-.2-.1.3,0,.5,0Z"/>
      <path class="st0" d="M45.1,226.9c-.2-.4-.5-.8-.8-1.3v.2c-.1-.6-.4-1.1-.7-1.7-.3-.6-.5-1.3-.5-2.1,0,0,0,0,0-.1l-.2-.3s0,.2,0,.5c0,.1,0,.2,0,.3,0,0,0,.1,0,.1,0,0,0-.3-.1-.5,0-.3,0-.5,0-.5,0-.4.1.1.1-.3,0-.5-.1-1.2-.2-.4,0-.1,0-.4,0-.6,0-.3,0-.5,0-.8,0,0,0-.1,0-.3,0,0,0,.2,0,.3,0,.1,0-.1.2-.4,0-.3.2-.6.2-.7,0,0,0,.4,0,.8,0,.4,0,.9,0,1.2,0,0,0,.1,0,.2,0,0,0-.2,0-.2,0,0,0,0,0-.1,0,.8,0,.8,0,.9,0,0-.1,0,0,.9,0,0,0,0,0,0h0s0,.1,0,.1c0,.4.2.5.3.7,0,.2.2.4.4.7,0,0,0,0,0-.1,0,0,0-.2-.1-.3,0-.2-.1-.4-.1-.4.2.2,0-.6-.1-1.1l.3.5c0,.3.2,1.1.2,1.2,0,0,0,.3,0,.6,0,.4.3.9.4,1.2,0,0-.1-.5-.2-.8-.1-.3-.1-.5,0-.2-.1-.3-.2-.4-.2-.6,0-.2,0-.3-.2-.6.2.6.2.1.4.5,0,0,0,0,0-.1,0,0,0-.2-.1-.3,0-.2-.1-.5-.1-.5,0,0,.1.3.2.6.1.2.2.4.2,0,0-.2-.2-.5-.2-.9,0-.3,0-.6-.2-.6h0c0-.8-.2-.3-.2-1.3,0,0-.1.2,0,.5,0,.3.1.3.2.9,0,.3,0-.7-.2-.3,0,.1,0,.5,0,.8,0,.3.1.5,0,.3,0,0,0-.2,0-.4,0-.2,0-.4,0-.4-.1,0-.2-.6-.3-.5,0-.5,0-.9,0-1.4,0-.2-.3.1-.1-.7.2-.3.3-.9.5-1.5,0-.3.2-.6.3-.9,0-.3.2-.5.3-.7l.2-.6c0,0-.5,1.1-.4.7,0,0,.1-.2.2-.4,0-.1.1-.2.1-.3,0,0,0-.1,0-.1h0c.2-.2.3-.5.5-.8,0,.3-.5.9-.3.8.3-.4.3-.4.6-.8,0,0,0-.1.1-.2,0,0,0,.1-.1.2,0,0,0,.2,0,.2.6-.7.4-.8.5-1,.3-.4,0-.3-.2,0-.3.2-.6.6-.6.5,0,0,.1-.1.3-.4.1-.2.4-.5.6-.7.2-.3.5-.5.7-.7,0,0,.2-.2.2-.2,0,0,0,0,0,0-.2.2-.3.4-.2.4.6-.4,0,0,.9-.5-.2-.1,1-.7,1.6-1.1.2,0,.3,0,.2,0,0,0-.2,0-.5.2.1,0,1-.3,1.3-.4.2,0,.5-.2.7-.2-.1,0-.2,0-.1,0,0,0,.2-.1.5-.2h0c-.1,0-.3,0-.4,0-.1,0-.3,0-.4,0-.2,0-.3,0-.5,0-.2,0-.3,0-.4.1-.6.1-1.1.4-1.4.6h.1c-.6,0-1.1.5-1.5.8-.2.2-.4.4-.6.5-.2.1-.3.2-.5.3,0-.1-.2.2-.3,0,0,0-.5.7-.5.7v-.2c0,0-.2.3-.4.6-.1.1-.2.3-.3.4,0,.1-.1.2-.1.2h0c0,.1-.1.3-.2.4,0,.2,0,.3-.1.4,0,.3-.2.5-.2.7,0,0,0,0,0,.2,0,.2-.1.4-.2.5,0,0,0,.1,0,.2,0,0,0,0,0,.3,0,.2,0,.3,0,0v.2c-.2,0,0-.2,0-.5,0,0,0-.1,0-.2h0c-.1.3-.3.5-.4.9,0,0,0-.3.2-.7,0-.2.1-.3.1-.4,0-.1,0-.2,0-.2,0-.1-.2,0-.5.5,0-.3,0-.4,0,0,0,0-.2.9,0,.6,0,.3-.2.7-.2,1.1-.1.4-.1.9-.2,1.3,0,.9,0,1.9.3,2.8,0,0,0,0,0,.1,0,0,0,0,0-.1-.4-1.1.2,1.2-.2-.3,0,1.2.4.9.7,2,0,.1-.2-.6-.4-.8,0,.2.1.5.2.7,0,.2.2.4.3.6,0,.2.2.4.3.5.1.2.2.3.3.5.4.7,1,1.2,1.6,1.9h0c.3.4.6.6.8.9-.1-.3-.2-.6-.5-1.1-.1-.2-.3-.5-.6-.9ZM44.8,214.1c0,.2-.3.4-.4.6.1-.2.2-.4.4-.6ZM44.1,225.6c0,.2.4.7.4.8-.3-.2-.3-.5-.4-.8ZM45,227.1l.4.4h0c0,.1-.5-.4-.5-.4Z"/>
      <path class="st0" d="M61.5,229.3c-.4.2-.6.3-.7.3-.2,0,.2-.2,1.6-1.4l.2-.2c-.2.1-.4.3-.7.6-.3.2-.6.4-.9.7-.1.1-.3.3-.5.4-.2.2-.4.4-.7.6-.2.2-.5.3-.6.5-.2.1-.3.2-.3.2.2,0,.5-.2.9-.4h-.2c1.2-.5,2.3-1.2,3.3-2-.2.1-.5.3-.7.4-.2.1-.4.2-.6.3Z"/>
      <path class="st0" d="M67.9,215.9c0,0,0-.2,0-.3,0,.2,0,.3,0,.3Z"/>
      <path class="st0" d="M63.8,226.1c0,.2-.2.4-.3.7-.1.2-.3.4-.3.5,0,0,.1,0,.3-.2.2-.2.3-.4.5-.6,0,0,0,0,0-.2-.2.2-.3.3-.3.2.3-.2.4-.4.4-.5,0-.2,0-.4.3-.7,0-.3-.5.7-.7.9Z"/>
      <path class="st0" d="M58.5,230.4c-.7.2-.5.2-.6.3.2,0,.5-.2.7-.3,0,0-.1,0-.1,0Z"/>
      <path class="st0" d="M66.2,222.3v.2c.1-.1.2-.3.2-.5,0,0-.1,0-.2.3Z"/>
      <path class="st0" d="M57.8,230.3c-.3,0-.5.1-.7.2-.2,0-.4,0-.6.1-.4,0-.8.1-1.3.2,0,0,.4,0,.4,0-.3,0-.5,0-.6,0-.2,0-.2,0-.4,0-.2,0-.4,0-1.1-.1-.1,0-.3,0-.6,0-.2,0-.4,0-.7,0-.2,0-.4,0-.6,0-.1,0-.2,0-.3,0,0,0,0,0,0,0,0,0,0,0,0,0,0,0-.2-.1-.4-.2-.1,0-.3-.1-.4-.1-.1,0-.3,0-.4-.1-.3,0-.8-.1-1.2-.3-.4-.1-.6-.2-.4,0,.2,0,.4.2.6.3.2,0,.4.2.6.3,0,0-.2,0-.4-.1-.1,0-.2,0-.3-.1,0,0-.1,0-.1,0,0,0,.1,0,.2.2.1,0,.2.1.2.1-.3-.1-.3,0-.2.2.3.1.7.2,1,.3,0,0,0,0,0,0,0,0,0,0,.2,0,0,0,.2,0,.4,0,.3,0,.5,0,.5,0-.6-.2-.9-.5,0-.3,0,0,.1.2-.2.1.5.3,1.8.5,1.5.3-1.1,0-.2-.3-1.1-.3.5,0,.9.1,1.4.1,0,0,.2,0,.2,0,0,0-.2,0-.2,0-.5,0,0,.3.8.4.3,0,1.1,0,1.6,0-.2-.1.2-.2-.6-.2.1,0,.3,0,.6,0,.2,0,.5,0,.7,0-.2,0-.6.1-.5.1.3,0,.7,0,1,0,.2,0,.3,0,.5-.1,0,0,0,0-.1,0l.5-.2c-.7.2-.4,0-.4,0,0,.1.5,0,.7-.2,0,0-.6,0-.6,0,.1,0,.4,0,.5-.1.2,0,.3,0,.2-.1ZM50.3,230.4c.3,0,.5.1.9.2,0,0-.8-.1-.9-.2Z"/>
      <path class="st0" d="M66.7,221s0,0,0,0c0-.2,0-.3.1-.5,0,0,0,.2,0,.4Z"/>
      <path class="st0" d="M7.1,169.6c-.1.6-.2,1.2-.4,1.9.2-.8.3-1.4.4-1.9Z"/>
      <path class="st0" d="M77.1,56.1c1.6-5.8,4.2-11.3,8.2-15.9,1.3,5.8,1.5,11.8.2,17.7,0,.2.3.4.4.2,3-6.3,1.5-12.9.5-19.5,0-.5-.8-.6-1.1-.3-4.9,4.5-8,11-9.7,17.4-.8,3.4-1.5,6.9-1.5,10.4,0,2.8,0,6.3,1.4,8.8.1.2.4,0,.4-.1.2-2.9-.5-5.8-.3-8.7.2-3.3.7-6.7,1.6-9.9Z"/>
      <path class="st0" d="M159.3,223.9c-.1.1-.3,0-.3-.2.3-.7.4-1.3.4-2-.9,1.7-1.9,2.8-3.9,3.2-1.9.4-3.9.4-5.9.4-3.8,0-7.6,0-11.4-.6-4.8-.6-9.3-1.9-12.1-6.2-2.8-4.3-4.9-8.4-8.7-11.9,0,0-.2,0-.2.1,3,5.2,5,12,9.9,15.8,3.6,2.8,8.3,3.9,12.7,4.5.2,0,.5-.2.7-.3.5-.2.9,0,1,.5,4.9.5,18.6,1.6,18.9-4.3-.3.4-.6.7-1,1Z"/>
      <path class="st0" d="M140.5,226.7c-.2.1-.5.2-.7.3-5.1,2-11,1.6-15.8-1.1-5.8-3.4-8.4-9.6-11.8-15.1-6.8-11-13.8-22-22.9-31.2-3.9-3.9-7.9-7.8-11.8-11.8-3.7-3.8-6.7-8-9.8-12.3-3.7-5.2-5.7-11.3-6-17.7-.3-7.1,2-12.6,5-18.9,0,0,0-.2-.2-.1-9.4,9.7-6.4,25.1-1.7,36.3,4.4,10.8,14.7,18.2,22.7,26.1,11.1,10.9,19.7,23.5,27.2,37.1,2.8,5,6.1,8.9,11.8,10.7,4.8,1.5,10.4,1.8,14.6-1.2.3-.2.3-.4.3-.7,0-.4-.5-.7-1-.5Z"/>
      <path class="st0" d="M136.2,196.8c-.5-.9-1-1.9-2.2-1.9s-1.1.6-1.3,1.1c-.6,2,.6,4.1,1.8,5.8,1.4,1.9,6.8,7.2,8.5,2.7,0-.2-.2-.5-.4-.3-2,1.2-4.3-1.6-5.3-3-.8-1-1.5-2.2-1.9-3.4-.1-.4-.2-.8-.4-1.1.3.1.5.4.9.6.3.2.5-.2.4-.4Z"/>
      <path class="st0" d="M102.6,74.5c-.3-.1-.6.2-.3.4,1.9,1.5,2.5,3.7,3.5,5.8.9,2.1,1.8,4.2,2.7,6.3,1.4,3.5,3.1,6.9,5.8,9.6,6.5,6.6,16.4,10.6,25.4,7.2,0,0,0-.1,0-.1-9.7,1.8-20.9-3.2-26.2-11.6-1.9-3-3.2-6.4-4.8-9.6-1.4-2.9-2.9-6.4-6-8Z"/>
      <path class="st0" d="M91.1,67c-5.7,10-4.9,22.2.7,32.1,2.1,3.8,5,6.6,8.4,9.2,3.6,2.8,7.5,5.6,11.5,7.9.2.1.5-.2.3-.4-6.2-5.5-14.4-9.2-18.2-17-2.4-4.9-3.9-10.5-3.9-16,0-5.3,1.9-9.9,3.4-14.9.4-1.2-1.4-2-2.1-.9Z"/>
      <path class="st0" d="M107,67c1.2.3,2.3.5,3.4.9,0,0,.2,0,.3,0,.4.1.7-.4.4-.7-1-1-2.4-1.8-3.9-1.7-.6,0-.8.7-.6,1.1,0,.1.2.3.4.3Z"/>
      <path class="st0" d="M7.1,169.6c0,.5-.2,1.1-.4,1.9.1-.6.2-1.3.4-1.9Z"/>
      <path class="st0" d="M9.6,9.2s0,0,0,0c-1.5,3.1-3.3,7.6-1.9,11,0,.2.4.3.5,0,.6-1.7.5-3.6.9-5.4.5-1.9,1.1-3.8,2.1-5.5,1.8-3.2,4.3-6,7.4-8.1-.8,0-1.6,0-2.4,0-2.6,2.2-5,4.8-6.6,7.9Z"/>
      <path class="st0" d="M2.2,221.9c-.3,1.9-.6,3.6-.9,4.9,1.6.2,1.5-2.3.9-4.9Z"/>
      <path class="st0" d="M19.8,1.7c-3.7,2.4-7,5.6-8.3,9.9-1.4,4.4-1.1,9.2,0,13.7.9,3.8,2.4,8.7,5.7,11.2.2.1.4-.1.3-.3-4.4-6.6-7.7-16.4-4.7-24.3,1.7-4.4,4.9-7.6,9-9.8.6-.3,1.3-.6,1.9-.9-1.1,0-2.1,0-3.2,0-.2.1-.4.3-.6.4Z"/>
      <path class="st0" d="M180.6,10.4s0,0,0,0c0,0-.2,0-.2,0,0,0-.2,0-.3,0-3.5,2.2-6.6,5.2-9.8,7.9-1.7,1.4-3.4,2.8-5,4.2,0,0-.2.2-.3.2-2.4,2-4.7,4-7.1,6-.3.1-.6.4-.8.7-2.1,1.8-4.2,3.5-6.2,5.3-10.6,9-21.2,18.2-32.3,26.7-.4.3-.9.6-1.3,1-1.4-1.5-3.5-2.6-5.8-3.4-.2,0-.5-.2-.7-.2-.8-.3-1.5-.5-2.3-.7.4-2.2.2-4.5.7-6.7.7-2.7,1.6-5.4,3.1-7.8,1.4-2.4,3-4.7,5-6.7.6-.6,1.2-1.2,1.8-1.8.3-.5.4-.5.3-.1.7,1.1,1.1,2.4,1.3,3.6,0,.1.2,0,.2,0,0-1.6-.8-2.9-.8-4.5,0-.3-.3-.6-.6-.6-1.6,0-3.5,2.5-4.5,3.6-1.7,2-3.3,4.1-4.6,6.5-1.3,2.6-2.5,5.3-3,8.2-.4,1.8-.8,4-.5,5.9-.6-.1-1.1-.2-1.6-.3-1-.1-2.1-.3-3.4-.4.1-.8,0-1.6.2-2.4,0-.1,0-.3,0-.4.1-.5.2-1,.3-1.6.2-.8.4-1.7.6-2.5.9-2.9,2.1-5.8,3.6-8.5,3.3-5.4,7.4-9.3,13.3-11.4,1,2.2,2,4.2,2.4,6.7.4,2.7.6,5.4.4,8.1-.2,2.7-.5,5.3-1.1,7.9-.4,1.7-1.4,3.5-1.6,5.2,0,0,0,0,0,0,0,.1.2.1.3,0,1.6-1.3,2.2-4.4,2.6-6.3.6-2.8,1-5.6,1.1-8.4.1-4.1.2-11.2-3.5-14.1-.2-.2-.4-.1-.5,0-6,.4-11.3,5.9-14.3,10.7,0,0-.1.2-.2.3,1.1-6.4-2.9-12.4-7.7-16.3-5.8-4.7-13.6-7.1-21-5.8-6.7,1.1-13.2,4.4-17.9,9.3-4.2,4.3-8,10.2-14.6,10.6-8.1.5-15.5-2.7-18.8-10.5-2.7-6.3-2.7-14.3.1-20.6,1.1-2.6,2.6-4.7,4.5-6.1-1.7,0-3.3,0-5,0-.2.2-.5.4-.7.6-2.8,2.2-5.6,4.8-7.3,8-3.2,6-3.9,13.3-1.4,19.6,2.4,5.9,6.8,10.7,12.6,13.6,5.2,2.5,12.6,4.4,18.1,1.9.2-.1,0-.4-.1-.5-3.2-.2-6.2.1-9.4-.5-2.9-.6-5.6-1.5-8.2-2.9-5.2-2.9-10.1-7.5-12.1-13.2-2.2-6.3-1.2-13.9,2.8-19.3,2-2.7,4.6-4.9,7.3-6.9-2.4,2.9-4,6.7-4.7,9.8-1.4,6.6-.9,14,2.6,19.9,3.9,6.6,11,9.8,18.6,9.5,5.7-.2,9.8-3,13.6-7.1,4.9-5.4,9.9-10.2,17.1-12.2,13.6-3.8,31.4,5.3,30,21,0,.2.1.4.3.5-.1.3-.3.5-.4.8,0,0,0,.2-.1.3-.4.9-.9,1.8-1.2,2.8,0-.3,0-.7,0-1,0-3.2-.8-6.6-1.9-9.6-1.8-4.9-5.8-11.1-11.7-11.4,0,0-.1.1,0,.2,2.9,1.6,5.6,2.8,7.4,5.8,1.5,2.4,2.5,5.1,3.1,7.9.6,2.7.8,5.4,1.3,8,.4,2,0,4.1,0,6.2-.3,1.4-.6,2.9-.3,4.2-1.1,0-2.1,0-3.1.3,3.2-10.3,1.5-24.9-9.7-29.4-5.4-2.2-11.4-.8-16.4,2-3.7,2.1-6.9,4.8-10.2,7.4-3.6,2.8-7.2,4.6-11.3,6.7-.1,0,0,.3,0,.3,6.9-.6,12.7-7.5,18.1-11.2,5-3.4,11.6-6.6,17.9-4.5,11.3,3.8,11.4,19.4,10,29.3-.7.3-1.4.7-2,1.1-.4.4-.8.8-1.1,1.3-.1.2,0,.6.3.5,1.9-.2,3.7-1.2,5.6-1.4,2.5-.3,5.2-.2,7.7.3,2.1.5,4.3,1,6.3,1.8,1.2.5,2.5,1.2,3.8,1.6-.6.5-1.3,1-1.9,1.5-3.8-3.6-12.4-5.7-16.5-1.9-.4.4,0,1,.5.9,3.5-.5,6.3-1.3,9.7,0,1.8.7,3.5,1.7,5.4,2.1,0,.3.1.6.4.8.2.1.5.1.7,0,1.9-1.4,3.9-2.9,5.8-4.4,0,.4,0,.8,0,1.2.2,1,.8,1.7,1.3,2.6.8,1.5.5,3.4-.2,5-.4.4-.8.8-1.3,1.2-.8.7.4,1.9,1.2,1.2,1-1,2.1-2,3.1-3.1.3-.3.6-.6.9-.9,1,.8,2.2,1.5,3.3,2.2.9.5,1.8,1.1,2.7,1.8,2,1.7,4,3.5,6.1,5.1,3.2,2.3,8.1,4.8,11.9,2.1,1.4-1,2.4-2.4,2.8-3.9.2,2.3,0,4.6-1.3,6.8-1.6,2.4-4.2,4-7,4.5-3.2.5-6.4-.1-9.1-1.6-3.8-2-6.9-5.4-8.8-9.2-.3-.6-1.2,0-.9.5,2,4.4,4.8,8.5,9.4,10.6.4.2.9.4,1.4.5,3,1.1,6.3,1.4,9.3.6,6.8-1.9,10.2-8.8,7.7-15.2,2.7,4.7,1.9,11.5-1.8,15.5,0,0-.1.1-.2.2-1.6,1.7-3.8,2.9-6.5,3.2-2.4.2-4.8,0-7.1-.5-1.5-.3-3-.8-4.5-1.4-1.5-.6-2.9-1.3-4.3-2.2-1.8-1.2-3.5-2.6-4.7-4.3-.7-1-1.4-2.1-2.2-3-.1-.2-.2-.3-.4-.4-.2-.2-.7,0-.6.3,2.3,6.9,9.7,12.4,17.4,13.9.6,1,1.1,2.2,1.4,3.3,0,.2.2.6.3.9-4.6-.2-9.2-1.2-13.2-3.4-5.5-3-8.2-7.8-10.6-13.4-1.9-4.5-3.7-10.3-8.3-12.8-.2-.1-.4,0-.5,0-.2.1-.3.5-.1.8,4.1,5.3,5.8,11.5,8.9,17.3,2.8,5.2,6.8,8.9,12.4,11,3.6,1.3,7.8,2.1,12,2.1,7.1,0,14.2-2.3,18.2-8.2,0,0,0,0,0-.1,0,0,0,0,0,.1,0,1.5.2,2.9-.1,4.4-.4,2.1-.9,4.2-1.9,6.1-1.9,3.9-4.5,7.5-7.8,10.5-1.3,1.2-2.7,2.3-4.1,3.3-2.4,1.7-5.1,3-7.9,3.8-2.1.6-4.3.9-6.5.7-1.2-.1-2.4-.7-3.6-.7,0,0,0,0,0,0-2.5-2.4-5.9-3.8-8.9-5.5-2.8-1.6-5.5-3.9-7.8-6.5,3.1,2.5,6.4,4.7,10.1,6.2,6.7,2.8,18.1,5,23.9-1.2.2-.2.4-.4.5-.6,0,0,0-.2-.1-.1-.2,0-.4.2-.5.3-3.9,1.8-7.4,3.4-11.9,3.1-4.3-.3-8.6-1.8-12.4-4-3.9-2.3-7.7-4.9-10.9-8.1-1.5-1.5-3-3.2-4.1-5-.2-.4-.5-.8-.8-1.2,0,0,0-.2,0-.3-.7-2.3-1.2-4.7-1.4-7.2,1.4,3.1,3.4,6,5.3,8.3,3.7,4.6,8.4,8.5,14.1,10.3,6.7,2.1,14.2,1.5,21-.9,3.5-1.2,6.8-2.9,9.7-4.9,0,0,0,0,0,0-3.3,1.3-6.6,2.6-10,3.6-6.3,1.9-12.7,2.7-19.3.4-5.2-1.8-9.6-5.1-13.3-9.2-2.2-2.5-4.1-5.2-5.6-8.1-.8-1.5-1.3-3.1-1.9-4.7.1-2.6.5-5.4-.1-7.8,0-.3-.6-.4-.7,0-1.4,2.6-1.5,6.3-1.5,9.2,0,3.1.1,6.3.9,9.3,0,.4.2.7.3,1.1,0,1.4.7,3,1.8,4.5,1.8,3.7,4.4,7.1,7.3,10,2,2.1,4.3,4,6.9,5.3,2.1,1.1,4.4,2.1,6.4,3.4,3.7,2.4,5.7,6.4,5.1,10.4,0-.4-.2-.7-.4-1.1-.6-3.5-2.7-6.4-5.7-8.5-5.4-3.9-11.3-6.9-16.1-11.6-4.9-4.8-9.1-10.5-11.1-17.2-2-6.8-1.3-13.3-.1-20.2,0-.6-.6-.8-.9-.4-1.7,2.4-2.1,6.1-2.2,9.1-.1,2.9,0,5.9.7,8.7,1.4,6.1,4.4,11.3,8.5,15.9,4.5,5,9.8,8.8,15.3,12.5,4.4,2.9,8.7,5.5,10.6,10-1.4-1.7-3.3-3.2-4.5-4.1-5.7-3.9-12.3-6.5-18.6-9.4-7.4-3.4-12.7-9.3-16.2-16.7-4.8-10.3-4.3-20.9,1.2-30.9,0-.1,0-.3-.2-.2-6.6,6.8-7.6,17.9-4.8,26.5,2.6,7.9,7.7,16.2,15.2,20.4,5.4,3,11.4,5,17,7.8,2.2,1.1,4.8,2.4,7.1,4.1-3-1.9-6.8-3.1-9.4-3.7-11.1-2.7-21.6-7.8-28-17.7-4.3-6.7-5.2-15.7-4.2-23.5.5-4.1,1.2-8.4,2.9-12.3,1.5-3.3,3.5-5.5,6.3-7.7.3-.2.2-.7-.2-.7,0,0-.2,0-.3,0-.4,0-.8.1-1.2.2-.6.2-1.1.4-1.7.7,0-.2.2-.3.2-.5,1-2.1,1.7-4.3,2.2-6.7,0,0,0-.2,0-.3.2-.9.3-1.8.4-2.8.2,2.8,0,5.7.7,8.5.1.4.7.4.8,0,1.1-4,1.2-9.3-1.2-13,0-3.9-.8-8.9-4-11.3-.3-.2-.6,0-.8.3-1.6,0-3.3.8-4.8,1.9-5.6-4.7-13,.2-18,3.8-3.5,2.5-7,5.2-11,6.8-4.9,2.1-9.9,2.2-15.1.9-.1,0-.2.2,0,.2,8.5,3.6,16.4-.5,23.4-5.3,3.3-2.3,6.7-5,10.6-6.2,3.4-1.1,6-.6,9.1.5-1.3,1-2.5,2.1-3.5,3.1-.2.2-.4.4-.6.6,0,0,0,0-.1.1-3.2,3.4-6,7.3-8,11.6-1.8,3.8-3.3,8-3.7,12.2-.3,0-.7.1-1,.2-.2,0-.3,0-.5.1-1.7.4-3.3,1-4.9,1.8-1-6.3-6.3-11.5-11.9-14.1-5.8-2.7-12.1-3.5-18.3-4.8-6-1.2-19-3.5-22.1-11.7v2.6c2.4,4.9,11.1,8.6,17,9.8,6.7,1.4,13.6,1.9,20.1,4.2,3.2,1.1,6.3,2.7,8.7,5.1,2.8,2.7,4.1,5.9,5.8,9.2-.9.5-1.8,1-2.7,1.6-.9-6-5.5-11.7-10.7-14.4-5.4-2.8-11.4-2.9-17.3-3.1-6.6-.2-14.9-1-20-5.8.3.7-.4.4-1-.2v.8c2.2,3.1,8.1,5.9,13.2,6.6,6.5,1,13.3,0,19.7,1.7,7.8,2.2,12.2,8.2,14.6,15.5-.9.7-1.8,1.4-2.7,2.2-4.1-8.9-15.5-13.3-25-13.1-.3,0-.6,0-.8,0-.6,0-1.3,0-1.9.2-2.8.3-5.2,1.1-7.5,2.1-.5.2-1.1.5-1.6.8-.1,0-.2,0-.3,0-2.6,1.4-5.2,3.9-7.5,5.8l-.5,2.6c2.5-2.1,5.8-4.4,8.7-6,11.2-6.1,28.5-2.7,35.4,8.6-1.5,1.4-3,2.9-4.3,4.5-.5-2-2.7-4.2-4-5.2-2.9-2.3-6.2-4.4-9.7-5.5-3.4-1.1-7.6-1.5-11-.2-5.2,2-7.6,3.3-9.8,5.1-.2.1.8.9,1,.8,2.9-1.3,5.1-3.7,8.3-4.3,3.3-.6,6.7-.4,9.9.8,3.3,1.2,6.7,3,9.3,5.3,1.1,1,2.4,2.1,3.1,3.5.4.8.6,1.3,1.1,1.8-.4.5-.7.9-1.1,1.4-5.7-4.9-13.5-7.3-20.7-5.3-5.7,1.6-8.7,1.8-17.9,11.9l1.6,1.4c3.7-4.2,6.4-6.5,10.1-8.1,4.3-1.8,9.1-2.6,13.8-2.4,4.4.2,8.1,1.7,11.8,3.9-.9,1.2-1.8,2.4-2.6,3.7-.2.3-.5.7-.7,1-4.2-6.9-21.2-6.6-32.8,7.4-2.8,3.4-1.7,4.3-.6,3.4,3.1-2.7,7.7-9,19.9-11.6,3.6-.8,9.9-1,12.5,2.3-4.4,6.8-7.9,13.9-10.9,21.4-7.1-3.7-18.4,2.2-22.3,7.5l-1,4.8c2.4-3.6,6.2-5.9,7.6-6.7,5-2.8,9.3-4.3,15-3.6-.4.9-.7,1.9-1,2.8-.2.5-.4,1.1-.6,1.6-.1.4-.3.8-.4,1.1-.4,1.2-.8,2.4-1.2,3.5-.2.5-.3,1-.5,1.5-.7,2-1.3,4-2,5.9,0,0,0,0,0,0-.5,1.6-1.1,3.1-1.6,4.7,0,0-.1,0-.2,0-.4,0-1,.2-1.7.3-.7.2-1.6.4-2.6.7-.5.1-1,.3-1.6.5-.6.2-1.1.4-1.8.6-1.2.5-2.5,1-3.8,1.6l-2,2.5c1.4-.8,4.8-2.8,6.1-3.4,1.2-.5,2.3-1,3.2-1.3,1-.4,1.8-.7,2.6-.9.7-.2,1.3-.4,1.7-.5,0,0,.1,0,.2,0-.7,2-1.3,3.9-2,5.9-.3,0-.7.2-1.1.3-.3,0-.6.2-1,.2-.4.1-.7.2-1.1.4-.8.3-1.7.6-2.7,1-.5.2-1,.4-1.5.6-.5.2-1,.5-1.6.8-.2.1-4.2,1.7-4.5,1.8l.2,3.4c3.1-2.3,4.4-4.2,4.8-4.4.5-.3,1-.6,1.5-.9.5-.3,1-.5,1.4-.7.9-.5,1.8-.9,2.6-1.2.4-.2.7-.3,1.1-.5.3-.1.7-.2.9-.4.4-.1.7-.3,1-.4-.6,1.7-1.1,3.4-1.7,5.1-.2.5-.3,1-.5,1.5,0,.2-.2.5-.2.7-1,3.1-1.9,6.2-2.8,9.4,0,.3-.2.6-.2.9-.8,2.7-1.5,5.4-2.1,8.1-.2,1-.5,1.9-.7,2.9,0,.4-.2.7-.3,1.1-.4,1.6-.8,3.2-1.2,4.8v3.5c-2.9,15.1-4.9,37-5.3,39.1.2,0,1.3,2.7,1.9,5.4,2.8-16.8,6.7-52.4,7.5-57.3,1.5-5.8,3.1-11.6,4.9-17.3,2.9-9.4,6.4-18.6,9.5-27.9,1.7-4.9,3.3-9.8,5.6-14.5,2.7-5.6,6-10.8,9.4-15.9,3.4-5,7-10,11.5-14,4-3.5,8.5-6.2,13.3-8.5,0,0,0,.1,0,.2-.1,3,0,8.7,3.1,10.5.3.2.8,0,.7-.4-.1-1.7-1.2-3.2-1.6-5-.4-2.1-.5-4.2-.3-6.3.5-4.5,2-8.9,4.1-12.9,2.1-3.9,4.6-7.6,7.7-10.8,1-1.1,2.1-1.9,3.2-2.7,1.4-1,2.8-1.9,4.2-2.8.2-.2.5-.3.7-.5,0,0,0,0,0,0,0,0,0,0,0,0,1,1.8,2.1,3.4,2.6,5.4,0,.1,0,.2,0,.3.2,1,.4,2,.5,3,0,0,0,0,0,.1,0,0,0,0,0,0,0,0,0,0,0,0,0,0,0,.2.1.3,0,.4,0,.9,0,1.3,0,.8,0,1.6,0,2.4-.3,4.3-1.5,8.3-2.8,12.4-4.2,3.2-6,10.7-6.6,15-1.1,7.5-.8,16.7,2.2,23.7,3.9,9.4,13.9,16.5,23,20.5,4.3,1.9,8.9,2.8,13.3,4.5,2.2.9,4.5,2,6.1,3.9,1.5,1.8,1.9,4,2.6,6.2,0,0,0,0,0,0-.2.3.1.8.5.7,2.3-.7,2.4-3.5,2.7-5.6.3-2.1.1-4.6-.9-6.6-.3-.5-.6-.9-.9-1.3.9.3,1.9.5,2.8.6,2.3.2,4.7,0,6.9-.6,2.6-.7,5-1.8,7.3-3.2,1.8-1.1,3.6-2.4,5.1-3.9,3.7-3.4,6.9-7.6,8.7-12.3,1.2-3.2,2.6-8.4.4-11.6,0,0,0,0,0,0,0,0,0-.2-.1-.2,0,0,0,0,0,0-.2-.3-.6-.2-.6.2,0,.2,0,.4,0,.5-2,2.1-4,4.1-6.7,5.4-2.6,1.2-5.5,2-8.4,2.2-.7,0-1.4,0-2.2,0,.1-.5-.2-1.1-.4-1.7,0,0,0,0,0,0-.2-.4-.3-.9-.4-1.3,0-.3-.2-.6-.3-.9,2.7.3,5.4,0,7.8-.9,5.4-2,8.3-6.8,8.6-12.4.4-6.2-1.9-11.4-7.6-13.2-.4-.2-.9-.3-1.3-.3-.2,0-.4,0-.6-.1-.2,0-.4,0-.5.3-.4.1-.9.4-1.3.7-.1,0,0,.2.1.2,3.5-.6,6,2.1,5,5.6-1,3.8-5.3,4.3-8.4,2.7-3.2-1.6-5.8-4.1-8.7-6.3-1.8-1.3-4.4-3.4-6.9-3.5,10.6-10.5,20.8-21.4,30.9-32.3,5.4-5.9,10.9-11.7,16.4-17.5,2.2-2.3,4.8-4.7,6.6-7.3,0-.1,0-.2,0-.3ZM6.7,171.5c.2-.8.3-1.4.4-1.9-.1.6-.2,1.2-.4,1.9ZM126.8,64.8c-.4.6-.9,1.2-1.3,1.8,0,0,0,0,0,.1-.9.9-1.9,1.9-2.9,2.8.4-1.1.5-2.3.2-3.2-.8-2.3-2.2-3.7-1.3-5.5,1.6-1.2,3.1-2.5,4.6-3.7,0,.4-.1.8-.2,1.1,0,.8-.1,1.7.2,2.4.5,1.2,1.6,2.7.5,4.2ZM132.1,60.2c-1.5,1.5-3,3-4.5,4.6.4-.7.5-1.5.2-2.5-.4-1.4-1.2-2.4-1-4,.1-.9.4-1.6.8-2.3,1.2-1,2.4-2,3.6-3,0,.3,0,.6,0,.9.2,1.2.6,2.3.9,3.5.3,1.1.2,1.9,0,2.9ZM137.1,55c-1.3,1.4-2.7,2.8-4.1,4.2,0-.7,0-1.4-.2-2-.3-1.2-.9-2.5-.9-3.8,0-.4.1-.9.3-1.3,1.3-1.1,2.7-2.3,4-3.4,0,.3-.1.5-.2.8,0,.8-.2,1.7.1,2.4.5,1.1,1.3,2,.9,3.2ZM141.7,50.3c-1.2,1.3-2.5,2.6-3.7,3.9,0-.2,0-.5-.2-.7-1.2-2.8-1.4-4.5.7-6.6.7-.6,1.5-1.3,2.2-1.9,0,0,0,.1,0,.2,0,.8-.2,1.7.1,2.4.4,1,1.1,1.8,1,2.8ZM142.4,49.6c0-.2,0-.3-.1-.5-.9-2.2-1.2-3.7-.4-5.3.9-.8,1.9-1.6,2.8-2.4,0,0,0,0,0,0,0,.8-.2,1.7.1,2.4.4.8.9,1.4,1,2.2-1.1,1.2-2.3,2.4-3.4,3.5ZM149.3,42.4c-1,1-2,2-2.9,3,0,0,0,0,0,0-.9-2.1-1.2-3.5-.5-5,.9-.8,1.9-1.6,2.8-2.4,0,.1,0,.3,0,.4,0,.6-.1,1.3.1,1.8.3.6.9,1.4.5,2.2ZM150.1,41.6c0-.2,0-.4-.2-.5-.4-.9-.8-1.8-.5-2.9.2-.8.7-1.2,1.2-1.8.2-.2.4-.3.6-.5.5-.4.9-.8,1.4-1.2,0,0,0,0,0,0,0,.6-.1,1.3.1,1.8.2.5.6,1.1.6,1.7-1.1,1.1-2.2,2.2-3.2,3.3ZM156.3,35.2c-.8.8-1.6,1.6-2.3,2.4,0,0,0-.2,0-.2-.4-.9-.8-1.8-.5-2.9.1-.4.3-.6.5-.9.9-.8,1.8-1.5,2.6-2.3,0,.5,0,1,.2,1.4.2.4.6.9.6,1.5-.3.3-.6.7-1,1ZM157.9,33.6s0,0,0,0c-.4-.9-.8-1.8-.5-2.9,0,0,0,0,0-.1,1-.9,2-1.7,3-2.6,0,.4,0,.9.1,1.2.2.4.4.8.5,1.2-1,1.1-2.1,2.1-3.1,3.2ZM161.5,29.9s0,0,0,0c-.4-.8-.7-1.5-.4-2.3,0,0,0-.2,0-.3,1-.9,2-1.7,3-2.6,0,.4,0,.7.3,1.1.2.3.2.6.2.9-1,1.1-2.1,2.2-3.1,3.3ZM165.1,26.1c-.2-.7-.6-1.3-.4-2,1.2-1.1,2.4-2.1,3.6-3.1,0,.3,0,.6,0,.9,0,.2.2.3.3.5-1.2,1.3-2.4,2.5-3.6,3.8ZM173.1,17.8c-1.4,1.4-2.7,2.8-4.1,4.2-.2-.4-.3-.8-.2-1.3,0,0,0-.1,0-.2,2.6-2.2,5.2-4.4,7.8-6.6-1.2,1.3-2.5,2.6-3.7,3.9Z"/>
      <path class="st0" d="M126.9,74.4c.3.1.6.3.9.5,6.4,3.6,13.3,14.3,20.9,7.5,0,0,0,0,0,0-8.4,5.7-14.1-6.5-20.8-9.5,0,0-.1,0-.2,0-.4-.2-.8,0-1,.3-.3.4-.3,1,0,1.3,0,0,0,0,.2,0Z"/>
      <path class="st0" d="M193.4,186.9c.8-.2,1.7-.3,2.5-.5h0c-.8.1-1.7.3-2.5.5-1.7,0-2.7,0-2.8,0-3.7.9-7.5,1.7-11.3,2.4-1.9.3-3.9.6-5.8.8-.4,0-.9,0-1.3.1-.5,0-.9,0-1.4,0-.9,0-1.8,0-2.8,0,.6,0,1.2,0,1.8,0-.8,0-1.5,0-2.1,0-.9,0-1.8-.1-2.6-.4,0,0,0-.2,0-.2-.5-1.2-1.2-2.4-1.8-3.7-2-3.7-4.4-7.3-6-11.1-1.7-4.1-3.6-8.1-5.5-12.1-2-4.3-3.9-8.6-5.4-13.1-.6-1.7-1.2-3.6-2-5.4,0-.6,0-1.2.1-1.7,1,.1,2.2-.3,3-.7,2-1.1,3.6-3,4.6-5,0,0,0,0,0,0-1.4,1.3-2.7,2.4-4.4,3.3-.6.3-1.3.6-2,.7,1.3-.5,2.6-1.6,3.4-2.4,1.1-1.2,2.7-3.1,1.9-4.8,0-.1-.2-.1-.3,0-.5.7-.8,1.5-1.3,2.2-.6.8-1.3,1.5-2.2,2.1-.6.4-1.2.7-1.9,1.1.5-1.9.9-3.7,1.3-5.6,1-4.8,1.5-9.9-.5-14.5-.2-.3-.5-.3-.7-.1-.2.1-.3.3-.2.5,1,5.9-.6,11-1.7,16.8-.3,1.8-.5,3.5-.4,5.3,0,0,0,.1,0,.2,0,0,0,0,0,0,0,.2,0,.3,0,.5-.3-.4-.5-.7-.9-1-.1-.1-.3,0-.3.2,1.8,7.1,4.1,14.2,7.1,20.9,3.3,7.4,6.5,14.8,10.7,21.7,2,3.3,4.9,7.3,4.6,11.3,0,.2,0,.5,0,.7-.9.7-1.4,1.9-1.9,2.8-.6,1-1.1,2.1-.9,3.2,0,0,0,0,.1,0,0,0,0,0,0,0,.2,0,.4.1.6,0,.3-.2.6-.4.8-.7-.5,1.4-1.1,2.8-1.7,4.2-1.2,2.9-2.6,5.9-2.7,9.1,0,2.3,1,4.8.9,7.1,0,.7-.1,1.4-.4,2,0,.2.2.3.3.2.4-.3.8-.7,1-1,1.1-1.5.9-3.3.5-5.4-.7-4.2.9-8.2,2.5-12,1.3-3.2,3-6.8,3-10.3,0-1.5-.3-2.9-.7-4.2,3.2,1.1,6.8,1.2,10.1.5,24.8-5.3,15.9,1.1,21.6-.3l1-1.9c-.7.2,3.4-2.3-4.8-2.2Z"/>
      <path class="st0" d="M93.1,142.5c.4,2.8,1.5,5.4,3.2,7.4,1,1.5,2.5,2.7,4.4,3.3.3.1.7.2,1,.3.2,0,.5.2.7.2,3.6.9,7.7.2,11.3,1.3.8,1.3,1.9,2.5,3.4,2.9.3,0,.4-.2.2-.4-1.3-1.6-2.5-2.8-3.3-4.7-.7-1.7-1.2-3.5-1.7-5.3-.9-3.1-1.9-6.4-4.1-8.8-2.5-2.6-6.1-4.2-9.8-3.9-.8,0-4.2.6-4.9.7-1.9-1.2-3.5-2.7-4.5-4.7-1.2-2.5-1.2-4.9-1.2-7.7,0-.3-.4-.3-.4,0-1.8,4.9,1.1,10.2,5.5,12.6-2.8.3-5.3,0-7.8-2.5-.2-.2-.5,0-.3.3,2.1,3.4,5.2,4.2,9,3.6,2.2-.3,4.5-.6,6.7-.4,0,0-.2,0-.3,0-.1,0-.2,0-.3,0,1.5.1,2.8,1.4,2.8,3s-.3,1.3-.7,1.8c.4.3.7.7.7,1.2,0,.8-.7,1.5-1.5,1.5s-1.5-.7-1.5-1.5,0,0,0-.1c-1.6,0-2.9-1.4-2.9-3s.2-1.1.5-1.6c-2,1.9-2.8,5.1-2.3,8-.6-1.1-1-2.3-1.4-3.7,0-.2-.3,0-.2,0ZM103.9,152.1c-1.1,0-1.1-1.7,0-1.7s1.1,1.7,0,1.7ZM113.4,154.6c-2.7-1-5.8-.6-8.6-1,2.8-.5,5.2-2.4,6.2-5.1.3.9.6,1.9.9,2.8.4,1.1.9,2.2,1.5,3.3Z"/>
      <path class="st0" d="M95.5,135.2c.2,0,.3,0,.5,0-2.4-2.5-3.2-5.3-3.7-8.9,0-.2-.3-.1-.3,0-.4,3.4,1.1,6.6,3.5,8.9Z"/>
      <path class="st0" d="M20.3,55.8c7.4.7,15.1.4,21.5,4.8,2.9,2,4.8,4.3,6.7,7.1.6,1,1.4,2.9,2.6,3.3.2,0,.4-.2.2-.4-.6-.5-1-1.7-1.4-2.4-.6-1.1-1.3-2.1-2-3.1-1.3-2-3-3.7-4.9-5-5.4-3.8-11.2-4.7-17.7-5.1-6-.4-12.5-.8-17.7-4.1-.8-.5-1.8-1-2.5-1.6l.4,1.4c4.2,3.4,9.4,4.6,14.7,5.1Z"/>
      <path class="st0" d="M5.6,10.6c-.1.2-.2.3-.4.5.1-.2.2-.3.4-.5h0Z"/>
      <path class="st0" d="M2.3,40.4c-.1-.2-.2-.3-.3-.5.1.3.2.6.3,1,0-.2,0-.3,0-.5Z"/>
      <path class="st0" d="M2.7,28.8c0-.4,0-.8-.1-1.3,0,.5,0,1,0,1.5,0,0,0,0,0,0,0,0,0,0,0,0Z"/>
      <path class="st0" d="M2.6,29c0,0,0,.2-.1.3,0,.2,0,.5.1.7,0-.3,0-.6,0-1Z"/>
      <path class="st0" d="M46.7,216.9s-.2.4-.3.8c0,.2-.1.4-.2.6,0,.2,0,.3,0,.3h0c0,.1,0,.4,0,.7,0,.3,0,.5,0,.7,0,0,0,0,0-.2,0,.9.1,1.1.2,1.1.1,0,.1.1.4.9,0-.1,0-.2,0-.4,0-.4,0-.8,0-.6-.2-.8,0-.8-.2-.9,0-.5.1-1.1.1-.5,0,0,0,0,0-.2,0-.1,0-.3,0-.5,0-.2,0-.4,0-.5,0-.1,0-.2,0-.2,0,0,0,.2-.1.4,0,.1,0,.2,0,.3,0,0,0,.1,0,.1,0-.1,0-.5.1-.9.1-.4.3-.7.2-.9Z"/>
      <path class="st0" d="M47.1,223.6s.6,1,.6,1c0,0,.7.6.3.1,0,0-.2-.2-.4-.4.1,0,.4.3.6.5.3.2.5.4.4.2-.3-.3-.5-.5-.7-.7-.2-.2-.3-.3-.5-.5-.5-.7-.7-1.3-.7-1.7,0-.2-.2-.2-.3-.5,0,0,0,.1,0,.2h-.2c.1.3.2.6.3.9,0,0,0,0-.1-.2,0-.1-.2-.3-.2-.4,0-.2-.2-.3-.2-.5,0-.1,0-.2,0-.2,0,.1,0,.3,0,.5,0,.2.1.4.2.7,0,.2.2.5.3.7.1.2.2.4.2.5-.2-.7.3.5-.2-.8,0,0,.1.2.2.3.1.1.3.3.3.3Z"/>
      <path class="st0" d="M65.2,213.1c-.1-.1-.2-.2-.2-.2.2.6.4.4.6,1.2,0-.2-.2-.3-.2-.3,0,0,0,.2.1.4,0,.3.2.6.3.9,0,.3.2.7.2,1,0,.3,0,.4,0,.4,0,0,0-.9.1-.4,0-.3-.2-1-.3-1.1v.2c-.1-.6,0-1.1.2-.7h0c0,0-.3-.5-.5-.9-.1-.2-.3-.4-.4-.5Z"/>
      <path class="st0" d="M64.3,212.1c.1.2.3.3.4.4,0,0,0-.1-.2-.2,0-.1-.2-.2-.2-.2Z"/>
      <path class="st0" d="M67.9,215.9s0,0,0,0v-.3q-.1,0-.1,0c0,.1,0,.2,0,.3Z"/>
      <path class="st0" d="M54.8,205.6c0,0-.1,0-.2,0,0,0,.1,0,.2,0Z"/>
      <path class="st0" d="M67.5,224.8l.4-1.5c0,.1,0,0,.1-.1,0-.1,0-.2,0,0,0-.1.1-.6,0-.5v.3c0-.8-.2-.4,0-1.7-.3.8-.3,1.1-.3,1.5,0,.1,0,.3,0,.4l-.2,1.3v.3Z"/>
      <path class="st0" d="M35.1,218.9h0s0-.3,0,0Z"/>
      <path class="st0" d="M64.7,212.5l.3.3c0,0,0-.1,0-.2,0,0-.1,0-.2-.1Z"/>
      <path class="st0" d="M66,214.4s.2.4.2.4c-.1-.4-.3-.9-.6-1.4l.4,1Z"/>
      <path class="st0" d="M64.4,211.6c-.4-.5-.4-.2-.9-1,.3.2.5.2,0-.5-.4-.4-.8-.8-1.1-1.1-.4-.3-.8-.5-1.2-.8-.4-.2-.8-.4-1.2-.6-.2,0-.4-.2-.6-.3-.1,0-.2,0-.3-.1-.1,0-.2,0-.3-.1,0,0-.3-.3-.8-.5-.5-.2-1-.4-1.3-.5.3,0,.9.1,1.4.3-.3-.1-.9-.4-1.4-.6,0,0,0,0-.1,0,0,0-.1.1-.1.1-2-.5.6,0-.4-.4-.6-.1-.8-.1-1.2-.1,1.6.3-.3.3,1.3.6-.3.1-1.2-.2-1.7-.3-.6-.3.6,0,.7-.2-.7-.1-.6,0-.9,0-.3,0-.5-.1-.8-.1-.3,0-.5,0-.8,0-.5,0-.9,0-1.2-.1-.8,0-.7.1-1.1.3,0,.1.2,0,.6,0,.3,0,.6,0,.7,0,0,0,0,0,0,0,0,0,.2,0,.3,0,0,0,.2,0,.2,0,0,0,0,0,0,0-.3,0-.3,0-.1-.1.1,0,.4,0,.6,0,.2,0,.7,0,.6,0h-.4c.2,0,.5,0,.7,0,.3,0,.5,0,.8.1,0,0-.2,0-.2,0,.3,0,.6,0,.8,0,.3,0,.6.1,1,.2h-.5c.2,0,.4,0,.6.1.2,0,.5.2.8.3.3.1.6.2.8.4.2.1.5.3.7.4,0,0-.3-.2-.1-.2.3.1.5.2.6.4.1.1.1.2,0,.2.6.2,1.7,1.3,2.3,1.8,0,0,0,0,.1,0,0,0,.2.1.4.2.3.2.7.5,1.1.8.4.3.8.6,1,.9.3.3.4.4.4.4,0-.1-.2-.2-.3-.4,0-.4-.1-.6.3,0Z"/>
      <path class="st0" d="M60.9,208s0,0-.1-.1c0,0,0,0,.1.1Z"/>
      <path class="st0" d="M58.2,206.5c0,0-.1,0-.2,0,0,0,.1,0,.2,0,0,0,0,0,0,0Z"/>
      <path class="st0" d="M65,212c.1.1.1.2.2.3,0,0,0-.2-.1-.2,0,0-.1-.1,0,0Z"/>
      <path class="st0" d="M64.9,212.5h0s0,0,0,0c0,0,0,0,0,0Z"/>
      <path class="st0" d="M48.2,204.7h-.2c.1,0,.2,0,.2,0Z"/>
      <path class="st0" d="M60.8,207.9c-.1-.2.7.2-.3-.4,0,0,0,0,.1,0-.3-.3-.5-.4-.8-.5-.2-.1-.4-.2-.7-.4-.2-.1,0,0,.2,0,.2,0,.3.1.2,0-.4-.2-.9-.5-1.5-.7-.5-.2-.9-.3-.9-.2-.6-.2-.6-.2-.8-.4-.3,0-.6,0-1-.2-.4,0-.8-.1-1.2-.2-.4,0-.7-.1-1-.1-.3,0-.4,0-.4.1.3,0,.9,0,1.4,0v.2c.7.1,0-.2,1.1,0,0,0,0,0-.2,0,0,0-.2,0-.2,0,.4,0,.9.2,1.4.3.5.1,1,.4,1.5.5,0,0,0,0,.2.2.1,0,.2.2.1.2.6.3,1.1.5,1.4.6.3.2.9.4,1.2.8Z"/>
      <path class="st0" d="M64.3,210.9s0,0,0-.1c0,0,0,0,0,.1Z"/>
      <path class="st0" d="M63.6,211.9s0,0,0,0c0,0,0,0,0,0Z"/>
      <path class="st0" d="M54.5,227.6s.1,0,.2,0c0,0-.1,0-.2,0Z"/>
      <path class="st0" d="M49.7,231.6h-.4c.1,0,.3,0,.4,0Z"/>
      <path class="st0" d="M42.2,226s0,0,0-.1c0,0,0,0,0,.1Z"/>
      <path class="st0" d="M42.5,226.4s-.2-.2-.3-.4c0,.2.2.3.3.4Z"/>
      <path class="st0" d="M59.1,225.8h0s0,0,0,0h0Z"/>
      <path class="st0" d="M46.9,210.3c0,0,.2,0,.3-.1,0,0-.1,0-.3.1Z"/>
      <path class="st0" d="M42.5,226.5s0,0,0,0c0,0,0,0,0,0h0Z"/>
      <path class="st0" d="M53.3,233.1c0,0,.2,0,.3,0-.1,0-.2,0-.3,0Z"/>
      <path class="st0" d="M52.8,232.4c0,0,.2,0,.2,0h-.2Z"/>
      <path class="st0" d="M65.1,227.8l.3-.4c-.2.2-.3.3-.3.4Z"/>
      <path class="st0" d="M54.2,232.6s0,0,0,0c0,0-.1,0,0,0Z"/>
      <path class="st0" d="M51.5,226.5s0,0,0,0h0s0,0,0,0Z"/>
      <path class="st0" d="M50.2,226.4c-.1,0-.3-.1-.4-.2.1.1.3.2.4.2Z"/>
      <path class="st0" d="M54.4,209.3c.1,0,.4.1.3.2.3,0,.3-.1-.3-.2Z"/>
      <path class="st0" d="M53.7,225.6c.2,0,.3,0,.2,0,0,0-.1,0-.2,0Z"/>
      <path class="st0" d="M51.2,211.1s0,0-.1,0c0,0,0,0,.1,0Z"/>
      <path class="st0" d="M49.5,225.9c0,0-.5-.3-.8-.4-.1,0-.2-.1-.2,0,0,0,.2.2.5.5,0,0-.3-.1-.6-.3-.2-.2-.5-.5-.7-.7.2.3-.2,0-.2,0,0,0,.2.2.3.3.1,0,.2.2.4.3,0,.2-.4-.2-.7-.6.3.5-.6-.5,0,.2.6.6,1.2,1.1,1.9,1.4.3.2.6.3.9.4.3,0,.6.1.9.2-.9-.3-1.9-.8-2.5-1.4h.4c.2.3.3.4.5.5.2.1.3.2.5.3.2,0,.3.2.5.2.2,0,.4.1.6.2,0,0-.1,0-.3-.1-.2,0-.4-.2-.6-.3-.2-.1-.4-.2-.6-.4-.2-.1-.3-.2-.3-.2-.3-.3-.4-.4-.3-.3.1,0,.4.2.7.4-.1,0-.3-.2-.3-.2Z"/>
      <path class="st0" d="M51.1,225.4h0s0,0,0,0c0,0,0,0,0,0Z"/>
      <path class="st0" d="M62.8,226.1h0s0,0,0,0Z"/>
      <path class="st0" d="M61.1,231.4s0,0,0,0c0,0,0,0,0,0Z"/>
      <path class="st0" d="M45.5,226.3s0,0,0,.1c0,0,0,0,0-.1Z"/>
      <path class="st0" d="M53.1,208.5c.2,0,.3,0,.5,0-.2,0-.4,0-.5,0Z"/>
      <path class="st0" d="M60.4,228.2s0,0,.1-.1c0,0,0,.1-.1.1Z"/>
      <path class="st0" d="M42.9,221.8s0,0,0,.1h0c0,0,0-.1,0-.1Z"/>
      <path class="st0" d="M42.9,220.9c0,0,0,0,0-.9,0,0,0,0,0,.1,0-.3,0-.8,0-1.2,0-.4,0-.7,0-.8,0,.1,0,.4-.2.7,0,.3-.1.5-.2.4,0,.2,0,.5,0,.8,0,.3,0,.5,0,.6,0-.8.1,0,.2.4,0,.5-.1,0-.1.3,0,0,0,.3,0,.5,0,.3.1.5.1.5,0,0,0,0,0-.1,0,0,0-.2,0-.3,0-.2,0-.5,0-.5l.2.3s0,0,0,0c-.1-.8,0-.8,0-.9Z"/>
      <path class="st0" d="M43,220.1c0,0,0,.2,0,.2,0-.1,0-.2,0-.2Z"/>
      <path class="st0" d="M45.1,214.3c0,0,.1-.2.1-.2,0,0-.1.2-.1.2Z"/>
      <path class="st0" d="M66.4,215.5s0,.9.1.9c0-.3,0-.5,0-.8h0Z"/>
      <path class="st0" d="M60,213.7l-.2-.3s0,0,0,0c0,0,.2.2.2.3Z"/>
      <path class="st0" d="M42.7,219.3c0-.1,0-.2,0-.3,0,.2,0,.3,0,.3Z"/>
      <path class="st0" d="M60,214.2c.1.2.3.4.4.6-.2-.3-.3-.6-.5-.9,0,.1.1.3,0,.4Z"/>
      <path class="st0" d="M42.6,225.7s0,.1.1.2c0,.1.2.2.2.2-.2-.4-.4-.7-.5-.9-.1-.2-.2-.4-.3-.5,0,0,0,0,0-.2-.3-.8-.6-1.2-.5-.7v.3c.1,0,.2.6.2.6.1,0,.4.5.6,1,.1.3.3.5.4.8.2.3.3.5.5.7-.2-.2-.4-.5-.7-.7-.1-.1-.2-.3-.3-.4,0-.2-.1-.4-.2-.6h0c-.3-.5-.4-1.2-.6-1.5l.3.8h0c.2.6.6,1.3.9,1.8.3.4.6.7,1.4,1.8h0c.7.5,1.6,1.9,2.3,2.2.2,0,0-.2-.4-.5-.4-.3-.8-.7-.9-.9.5.3.8.8.5.4.5.4.6.5.7.7.1.1.2.3.7.5,0,0-.5-.4-.5-.4.2.1.5.3.8.4.3.2.5.3.8.4,0,0-.1-.1-.4-.3-.3-.2-.7-.4-1-.6,0,0,.4.1.4.1,0,0,0,0-.2-.1-.1,0-.3-.2-.5-.3-.2-.1-.4-.2-.5-.3-.1-.1-.2-.2-.2-.2-.5-.2-.2.2-1.1-.6-.2-.4-.3-.7-.2-.8-.4-.2-1-1.1-1.5-2.1Z"/>
      <path class="st0" d="M68.8,218.5c0,.1,0,.2,0,.3,0-1.3-.3-3.5-.7-4.1,0,.3.4,1,.2,1.4l.2.4c.1.4.2,1.5,0,1.6-.1-1.2-.3-1.5-.5-2.1,0,0,0-.1,0-.3,0,0,0,0,0,0h0c0-.3-.2-.9-.3-1.2,0-.4,0-.2.1-.1,0-.4-.2-.7-.3-1-.1-.3-.2-.6-.4-.9-.2-.3-.3-.6-.5-.8-.2-.3-.4-.6-.5-.9,0,0,0-.3-.2-.6-.1-.2-.2-.4,0-.3-.2-.4-.5-.7-.7-.9-.2-.2-.4-.4-.7-.6,0,0-.2-.4-.4-.6-.2-.2-.3-.3-.1-.2l-.7-.5c-.2-.2-.5-.5-.8-.7-.3-.2-.6-.5-.6-.6-.5-.3-.2,0-.9-.5,0,0,0,0,.1,0-.2-.1-.4-.3-.7-.5-.3-.1-.6-.3-.8-.3.5.3.1,0,.7.4,0,0-.8-.2-1.5-.6,1.1.2-.7-.5-.2-.4-.4-.2-.8-.3-1.1-.4-.4,0-.7-.1-1-.2-.6-.1-1.3,0-2-.1-.4,0-.9,0-1.3-.1-.2,0-.5,0-.7,0-.2,0-.5,0-.7,0-.9,0-1.8.2-2.4.3h.2s0,0-.1,0c0,0-.2,0-.3,0-.2,0-.4.1-.4.1-.4,0,0-.2-.7,0,.2-.2,1.2-.3,1.9-.5-1.3,0,1.1-.3.3-.3-.4.3-2.7.5-3.6,1.1-1,.3.4-.3,0-.1l-.3.2c-.4.1-.5.2-.6,0-1.1.4-2.2,1.1-2.9,1.7,1-.7-.3.3.7-.3-.3.2-.9.7-1.5,1.1.6-.4-.9.4.4-.5-.1,0-.3.1-.5.3-.2.2-.4.4-.7.6.1-.1.3-.4.5-.5.2-.2.3-.3.3-.3-.2.2-.4.4-.7.7-.3.3-.6.5-.9.8-.6.5-1.1,1-1.2,1.2-.2.4-.4.8-.7,1.2-.2.5-.5.9-.7,1.4-.6.7-1,1.7-1.4,2.7v-.2c-.1.3-.2.6-.4,1-.1.4-.2.8-.3,1.3l-.2.2c0,.1,0,.3-.1.5,0,.2,0,.4,0,.7,0,.5-.2,1-.2,1.4,0,0,0-.2,0-.4,0-.2,0-.3,0,0,0-.4.1-.8,0-.7,0-.5.2-.4.3-.8,0,0,0,.4-.1.9,0,.2,0,.4,0,.6,0,.2,0,.3,0,.3,0,.1,0,.2,0,.2h.1c0,.6,0,.7-.1.6,0,1,.2,1.3.2,2.3-.1-.4-.2-.7-.2-1.4v1.2c0-.3-.1-.9,0-1.5,0-.5,0-1-.1-.8,0,.3,0,.7,0,1.1,0,.4,0,.8.1,1.2,0,.8.3,1.5.4,2.1,0,.3,0,.7.2,1.1.1.4.2.9.4,1.3,0,.1,0,.4,0,.3v-.3c.3,1.3.9,2.7,1.6,3.6l.2.6c.2.4.4.6.4.7,0,0,0,0,0,0,0-.1,0-.2.6.6.1.5,1.5,2,1.5,2.1.3.3.4.4.5.3-.1-.1-.3-.3-.4-.4-.1-.1-.1-.2,0,0,.5.5.7.7,1.1,1.1,0,0-.4-.2-.2,0,.1.1.3.2.4.4.2.1.3.2.5.4.4.3.7.6,1.1.8.4.2.8.5,1.2.7.4.2.8.3,1.1.4-.4-.2-.5-.1-1.1-.5,0,0,.3.1.5.2,0-.1-.6-.3-1.1-.7l1,.5-.5-.4s.1,0,.4.2c.2.1.5.2.8.3.6.2,1.2.4,1.2.4-.4-.2-.8-.4-1.2-.6-.2,0-.4-.1-.5-.2-.2,0-.3-.2-.5-.2-.3-.2-.6-.3-.9-.5-.3-.2-.6-.4-.9-.7.2.1,0,0,0-.1-.2-.1-.5-.3-.7-.5-.2-.2-.4-.3-.5-.4l-.6-.6c0,0,.4,0,1,.7-.5-.5-1.1-1-1.5-1.5-.2-.3-.5-.5-.7-.7-.2-.3-.4-.5-.6-.8-.8-1-1.5-2.2-2-3.7,0-.1.2.4.1.1-.2-.3-.4-.8-.4-.9,0,0,.1.1.2.3-.1-.4-.2-.7-.3-1,0-.3-.1-.6-.2-.8,0-.5-.2-1-.3-1.5,0,0,0,.2.1.3,0,.2,0,.3,0,.3,0-.8-.2-1.3-.3-1.9,0-.6-.2-1.2-.2-2,0,.5.1-.3.2-.8,0-.6,0-1.6.3-2.7.1-.5.3-1.1.4-1.6.2-.5.4-1,.5-1.5,0,.6.9-2,1.3-1.9.2-.4.5-.9.5-1,0,.2-.5.7-.5.6.2-.3.4-.6.6-.9.2-.3.3-.5.3-.6,0,0,.6-.5.6-.5,0,0,0-.4.4-.7.4-.3.4-.3.4-.3,0,0,0-.2.5-.6-.2.3-.3.5-.4.7.5-.4.4-.4.7-.7.2,0-.2.5-.6.8,0,0,0,0,.1,0,0,0,.2-.1.2-.2.2-.1.3-.2.3-.2.1-.2.3-.3.5-.6.2-.2.4-.4.6-.6.5-.4,1-.8,1.6-1.1-.1.2-.5.4-.2.3.5-.3,1.1-.8,1.8-1,0,0,0,0-.1,0,.6-.3.8-.3,1.1-.4.2,0,.4,0,1-.2,0,0,0,0,0,0l.7-.2c.4-.2.7-.2.9-.2.2,0,.4,0,.6,0,.4,0,.6.1,1.1.2h-.2c.6.1,2.4,0,2.9.2-.6-.2-.2-.1-.6-.3-.6,0-.4.2-1.3,0,.1-.2,1.3-.1,1.6-.2.5,0,.8.4.9.5.3,0,.6,0,.9.2.3,0,.5.2.8.2.5.1,1.1.4,1.8.6.3,0,.6,0,.9.2.3,0,.8.3,1.3.7h0c0,0,.5.4.8.5-.3-.4.5.3.2-.2.6.5.6.7.6.9.6.2,1.1,1.1,1.9,2-.2-.1-1.1-1.1-.8-.6,0,0,.3.2.6.5.1.1.3.3.4.4.1.1.2.2.2.2,0,0,0-.1-.2-.3-.1-.1-.2-.3-.2-.3.4.4.6.7.8,1,.2.3.2.5.4.8,0,.1-.2-.2-.4-.5.2.3.5.8.7,1.2.1.1.3.5.5.9.2.4.4.8.5,1,0,0,0,.1,0,.2,0,0,0,0,0,0,0,0,0,.2,0,.2,0,.2,0,.4.1.6h0s0,0,0,.1v.6c.1,0,.2.3.2.3v-.2c0,0,.2.2.3.5,0,.3.2.7.2,1.2,0,0,0-.2,0-.4,0-.2,0-.5,0-.9v.2c.2.5.1,1,.1,1.5,0,.5,0,1,0,1.4,0-.3,0-.7,0-1.1-.1.5-.1,1.1-.2,1.7,0,.6-.1,1.1-.3,1.3,0-.4,0-.7,0-1,0-.2,0-.3,0-.4,0-.1,0-.3,0-.4,0-.3,0-.6,0-.9,0-.3,0-.6,0-1,.1-.8.1,1,.2,1.1,0,0,0,0,0-.1,0,0,0-.2,0-.3,0-.2,0-.4,0-.4,0,0,0-.4-.1-.8,0-.4-.2-.7-.3-.5.2,1.9,0,3.8-.5,5.4,0,0-.2-.5-.4-.9-.2-.4-.4-.8-.4-.8,0,0,0,0,0-.1h0c0,.1,0-.2,0-.5,0,0,.1.2.1-.3.2-.8-.1-1.3,0-1.9v.2c0-.3,0-.6,0-.9,0-.3,0-.6-.2-.8.1-.5.3,1.6.3.7,0,.3,0,.7.1,1.1,0,.4.1.7,0,1,0-.8.2-1.5.3-1.3-.2-.9-.3-.9-.4-.8-.1,0-.2.1-.3-.6l-.2-1-.3-.3c-.2-.6.3.3,0-.6-.2-.2-.4-.8-.5-1,0,0,.1,0,0-.5,0,0,0,0-.3-.3,0-.2.2,0,.3.2.1.2.2.4.2.1-.5-1-.5-.5-.7-.6,0,0,0,0,0,.2,0,0-.2-.4-.3-.3,0,.2.2.3.3.4-.2-.2.2.5.3.8.5.6.9,2.1,1.1,3.2,0,0,0-.3,0-.1,0,.4,0,.7.1,1,0,.3,0,.6,0,.8,0,.5,0,1.1,0,1.9v.2c0,.7,0,.9.2,1,.1,0,.2,0,.2.2,0,.3,0,.6-.2.9v-.2c-.1.5-.1.6-.1.6,0,0,0,.1-.2.5-.2.7.2-.6.2-.1-.4.9,0,.7-.7,1.9,0,0,0,0,0-.1,0,0,0-.2.2-.6,0,0-.1.2-.2.3,0,0-.1.2-.2.2,0,0,0,0,0,0,.2-.4.2-.5.3-.6,0,0,0-.2.3-.6,0-.5-.1-.4,0-.9-.1.3,0,.3-.2.8-.3.6,0-.1,0-.2-.2.8-.5.8-.8,1.5.2,0,.2.1.6-.3-.2.5-.7,1-.9.9v.2c0,0-.3.4-.4.4v.2c.1-.1.3-.2.4-.4.2-.2.3-.4.5-.7,0,.3.4-.2,0,.6-.3.3,0,0-.1,0-.6.9-1,1.2-1.4,1.5-.2.1-.4.2-.6.4-.1,0-.2.2-.3.3-.1,0-.3.2-.4.3.1-.1.4-.3.7-.6.3-.2.6-.5.9-.9-.4.3-.7.7-1.1,1,.3-.3.3-.4-.1-.1,0,0,0,0,0,0,0,0,0,0,0,0-.2.2-.6.5-.7.4,0,0,.1,0,.3-.1-.5.5-1.7,1.3-2.9,1.6,0-.1.4-.3.7-.4.3-.2.5-.2,0-.1-.2.1-.4.2-.7.4-.3.1-.6.3-1,.3.3-.2-.4,0-.4,0,0,0,0,0-.2,0-.1,0-.3,0-.4.1-.3,0-.6.2-.6.2-.3,0-.6,0-.9,0-.3,0-.6,0-.9,0,.2,0,.4,0,.7,0-.4,0-.8,0-1.2,0-.2,0-.4-.1-.6-.2-.2,0-.5-.1-.7-.2,0,0,.5,0,.5,0-.4-.1-.7-.2-1.1-.3-.3,0-.6-.2-1-.3h0c0,0-.1,0-.3-.1-.1,0-.3-.1-.5-.2-.4-.1-.8-.3-.9-.4.4.3.8.4,1,.5.1,0,.2.1.3.2.1,0,.2,0,.3.1.2,0,.4.2.6.3.3.1.6.2,1.1.3-.4,0-.7,0-1,0-.3,0-.7-.1-1.1-.2-.3-.1-.4-.2-.4-.3-.3,0-.4,0-.9-.2h0c-.3-.4-.5-.5-.7-.6-.2-.1-.3-.2-.5-.2-.1,0-.3-.1-.5-.2-.2-.1-.3-.3-.6-.5,0-.2.2,0,.6.3.2.1.4.3.6.4.2.1.4.3.6.4-.4-.5,1.1.6.7,0h-.4c-.3-.3-.2-.4,0-.3-.5-.3-.3-.2-.5-.3-.2-.2-.4-.3-.5-.4,0,0-.2-.2-.2-.2,0,0,0,0,0,0,0,0,.2,0-.5-.7.2.1.6.5.6.4,0,0,.2.2.4.4.2.2.4.3.4.3h.1c-1-.9-1.6-1.4-2.2-1.7.9.9,0,.2.3.7-.2-.1-.3-.3-.4-.5,0,0-.5-.6-.5-.4,0-.2-.3-.9-.5-1.5,0-.3-.2-.6-.2-.7,0-.2,0-.2.2-.1,0-.2-.1-.4-.2-.8,0-.3-.2-.7-.3-1.1-.2-.8-.2-1.8-.2-2.6v.4c.5-1.6,0-1.5.2-2.5,0,.4,0,.3.2,0,.2-.3.3-.8.5-.9.1-.4.2-.7.4-1.1,0-.2.2-.4.3-.6.1-.2.3-.4.4-.6.3,0,.4,0,.9-.4l.3-.4c.2-.2.6-.4.9-.7.3-.2.6-.4.8-.4h0c.7-.2.7-.4.1-.2,0,0,.2,0,.3-.2,0,0,.2,0,.2-.1,0,0,.1,0,.1,0h0c.2,0,.4-.2.7-.3.2,0,.5-.2.7-.3.3,0,.6-.1.9-.2.3,0,.7,0,1.1,0-.4.1,1.2.3-.2.3.2,0,.1,0,0,0-.1,0-.3,0-.3,0-.5,0-1,.2-1.2.2.2,0,0,.3-.2.4.5-.2,1.4-.3,2.2-.2.2,0,.4,0,.6,0,.2,0,.4,0,.5,0,.3,0,.5,0,.6,0,.6.2,1.3.4,1.9.8.6.4,1.2.9,1.7,1.4,0,0,0-.2,0-.2,0,0,.7,1,.6,1l-.2-.2s0,.2.2.4c0,.2.2.4.2.4,0,0-.2-.1-.4-.4-.1-.1-.2-.3,0-.2-.2-.2-.2-.1,0,0,.1.2.2.4,0,.2,0-.2-.3-.4-.4-.5.5.8.9,1,1,1.6.3.3.7,1.2.7,2,0-.2,0,0,0,.3,0,.2,0,.4,0,.2,0,.2,0,.4,0,.7,0,.2,0,.5,0,.5,0-.1,0-.5,0-.7,0,.3.1.4,0,.8,0,0,0,0,0,0,0,.3,0,.3.1.5,0,.1.1.3,0,.8,0,.3-.2.5-.2.7,0,.2-.1.3-.1.3,0,0,0,0,0-.2,0-.2,0-.5,0-.6,0-.2,0-.3,0-.2,0,.1-.3,1.2-.6,1.6,0,0,0-.1,0-.1-.1.2-.2.6-.5.7,0,.2,0,.5-.1.7,0,0-.8.8-.9.8,0,0,.2-.2.1-.2-.2.2-.4.3-.6.5-.1,0,.2-.2.4-.4-.2,0-.4.2-.6.4,0,0,.1,0,.1,0-.1,0-.4.3-.5.5-.2.1-.2.2.2,0-.3.2-.5.3-.7.3-.2,0-.4,0-.6.1,0,0,.3-.2,0-.2-.2,0-.4,0-.5.1-.2,0-.3,0-.5.1.3,0,0,.1.5,0-.2.1-.8.2-.7.2.2,0,.3,0,.6,0-.6.1-1.2.2-1.8,0,0,0,0,0,.2,0,0,0-.2,0-.3,0-.1,0-.2,0-.3,0-.2,0-.5,0-.7-.1-.2,0-.5-.1-.6-.2-.2,0-.4,0-.5-.1h.2c.2.2.6.3.7.4-.6-.2.4.3-.3.1-.9-.2-1.5-.9-2-1,.2.1.4.3.6.4.1,0,.2.1.3.2.1,0,.2.1.3.2.2.1.4.2.6.3.2,0,.3.1.4.1l-.5-.2s0,0,.2,0c.1,0,.3,0,.5,0,.2,0,.3,0,.5,0,.1,0,.2,0,.2,0,0,0,.3,0,.6.1.3,0,.5,0,.5.1-.5,0-.9,0-1.2-.1,0,0,.3,0,.7.2.3,0,.8,0,1,0,0,0-.2,0-.3,0-.1,0-.3,0-.3,0,.5,0,1.1,0,1.7-.2.6-.1,1.2-.3,1.6-.6-.3.2-.1.1.2,0,.3,0,.5-.2.3,0-.2.2-.7.2-.5.2,0,.1.6-.2.8-.3,0-.1.9-.7.4-.5.3-.1.8-.7,1.2-1-.1,0,0-.2.2-.4.1-.2.3-.4.3-.5.1-.2.2-.3.3-.4-.2.4-.4.9-.8,1.3h0c-.2.1-.5.4-.4.4h0c-.7.9-1.7,1.5-2.3,1.8,0,0,.2-.2.2-.2-.8.5-1.7.5-2.6.7,0,0,.1,0,0,0-.1,0-.3,0-.4,0-.1,0-.2,0-.3,0-.2,0-.4,0-.6,0-.2,0-.4,0-.5,0-.2,0-.4,0-.6-.2h.1c0,0-.2,0-.3,0-.1,0-.2,0-.2,0,.7.2.9.2,1.6.3-.1,0-.4,0-.6,0-.2,0-.5,0-.7-.2h0c-.3,0-.6,0-.9-.2-.3-.2-.5-.3-.8-.4,0,0,.1.1.3.2.1.1.3.2.3.2,0,0,0,0-.1,0,.3.1.6.2.6.2,1,.3,1.5.6,1.7.7.5.1-.2.1-.2.2.4,0,.6,0,.8,0,.2,0,.4,0,.8,0,.2,0,.1,0,0,0,0,0,.2,0,.2,0,.2,0,.3,0,.3,0,0,0,.4,0,.6,0,.3,0,.4,0,0,.1-.1,0-.4,0-.5,0,.6,0,1.4-.1,2-.3.6-.2,1.1-.3,1.1-.2.6-.3.4-.2,1.3-.8.3-.4-.1-.2.6-.9-.1.1-.7.5-.7.5-.1.1-.2.2-.4.4,0,0,.2-.1.4-.3.2-.2.4-.3.4-.3-.4.4-.3.4-.4.6-1.2.8-1.7.8-2.4,1,.4-.2,1.1-.5.8-.5.7-.2.6-.4,1.3-.8h-.1c.2-.1.4-.2.5-.3.1-.1.3-.2.4-.4,0,0,0,0,.1,0,.8-.9-.3.2.4-.7.7-.8.4-.1.6-.3-.5.8-.4.8-.4.8,0,0,0,.1-.6.9,0,0,.3,0,.5-.3.1-.1.3-.3.4-.4.1-.2.3-.4.5-.6-.5.5,0-.5-.6.1.1-.2.2-.3.3-.4,0-.1.1-.3.2-.4,0-.2.2-.4.2-.6,0-.2.1-.4.2-.6,0-.2.2-.5.4-.9h0c0,0,0-.6,0-.6,0,0,0-.2.2-.4,0-.2.1-.5.1-.5,0,.3,0,.6,0,.9,0,.3-.1.6-.2.8.2-.3.2-.5.3-.7,0-.2,0-.4,0-.6,0-.2,0-.4,0-.7,0-.2,0-.5,0-.9.1-.6.2-.2.1.3,0,.5,0,1.1,0,1.1,0-.1,0-.4.1-.6,0-.2,0-.4.1-.3,0,.6-.1.8-.1,1.1,0,.2,0,.5-.3,1.1.1-.7,0,0-.1,0,0,.1-.1.5-.3.9-.2.4-.5,1-.8,1.4,0,.1.1,0,.3-.3.2-.3.4-.6.5-.9.3-1.1.9-2.2.8-3.1,0-1.2.1,0,.2-.2,0-.6,0-.7,0-.7,0,0,0,0-.1-.1,0-.8-.1-1.3-.1-1.7,0-.4,0-.8-.2-1.4,0-.1-.1-.2-.2-.4,0-.2-.2-.3-.3-.5-.2-.4-.4-.7-.6-1.2-.5-.8-1.2-1.6-1.8-2.2.2.1,0-.1,0-.2-1-.4-.6-.3-1.8-.9,0,0,.2.2.4.3.1,0,.2.2.3.2,0,0,.1.1.1.1-.7-.5-1.4-.6-2-1,.4.3,0,.2-.4,0-.1,0-.3,0-.4-.1-.1,0-.3,0-.4-.1-.3,0-.5-.1-.7-.1-.4-.1-.8-.2-1.2-.2-.4,0-.7,0-.9-.1,0,0,.1,0,.1,0,0,0-1.2,0-1.2,0v-.2c-.3,0-.8,0-1.1.2-.3.1-.5.2-.3.2-.4,0-.5,0-.5,0,0,0,0,0,0-.1.2,0,.6-.2,1-.4.4,0,.7-.1.9,0,0,0-.3,0-.3,0,.6,0,.9,0,1.1,0,.2,0,.3,0,.3-.1,0,0,0-.2.5-.2-.3,0-.6,0-.9,0-.3,0-.6,0-.9,0-.2,0-.6,0-1,.2-.4.1-.9.3-1.2.4.4-.2.7-.2,1-.3.3,0,.6,0,.9,0-.6,0-.6.2-1.1.2h.1c0,0-.6.1-.6.1-.1-.1-1.7.5-.8,0-.8.3-.2.2-.9.6,0,0,.4-.1.7-.3.4-.1.7-.2.7-.2h0c-.5.4-.7.3-1.2.6h.1c0,.1-.3.2-.5.3-.2.1-.5.2-.5.2.2,0-.6.4-.7.6-.5.3-.4-.2-1.1.6h0c-.4.4-.6.6-1.2,1.2,0,0,.1-.2.2-.3-.4.4-.9,1-1.2,1.6-.2.3-.3.6-.4.8-.1.2-.3.4-.4.5,0-.1.2-.5,0-.6.1-.2.2-.4.3-.5,0-.1.2-.3.2-.4.1-.2.2-.4.3-.5,0-.2.2-.3.3-.6,0-.1.2-.3.3-.4.1-.1.3-.3.5-.5.1,0,.4-.3.8-.6.3-.4.8-.7,1-.7-.2.1-.4.2-.5.4-.2.1-.3.3-.4.4-.3.3-.4.5-.3.4.3-.3.6-.6,1-.8.4-.2.7-.5.9-.6-.2,0-.3,0-.4,0,0,0,0-.2.2-.3-.5.4-1.3.9-2,1.5-.4.3-.7.7-1.1,1-.2.2-.3.4-.5.6-.1.2-.3.4-.4.6h.3c-.4.6-.4.6-.4.5,0-.1,0-.3-.3.3v.5c-.1,0-.2,0-.2,0,0,0-.2.9-.2.9.2-.6,0-.4.3-1,.3-.5.1,0,.1.3-.2.4-.7,1.7-.5.8,0,0-.1.4-.2.8,0,.4-.1.8-.1.8,0,0,0-.4,0-.5,0,0,0,.3-.1.6,0,.3,0,.6,0,.6h0c-.1.9-.1,2.2,0,2.9,0-.8,0-.6.1-.2,0,.4.1.9.2.8,0,.5-.2.8-.5-.4.1-.3-.1-1.1,0-1.8,0,.4,0,.7,0,.9,0,.2,0,.5,0,.8,0-.2,0,0,0,.3,0,.3,0,.6,0,.6,0,0,0-.1-.2-.3,0-.2-.1-.4,0-.8,0-1.2.2-.1.1-.5.1-.3,0-1.7.2-2.4,0,0,0,.2,0,.3,0-.6.4-1.9.4-2,0,0,0,0,0,.2,0,.1,0,.3-.1.5,0,.2,0,.4-.1.5,0,.1,0,.2,0,.2,0,.3,0-.5-.2,0,0,.4-.1.8-.2,1.2h0c-.2.9-.1,2.4,0,3.5.3.2.6.7,1,1.1.4,1.5,1.2,3,2.1,4.3,0,0,0,0,.2,0,.1.2.3.5.5.7.2.2.3.4.3.4.4.3,1.6,1.1,1.5.8,0,0,.1,0,.2.1.2.2.5.5.9.8.2.2.4.3.7.5.1,0,.3.2.4.3.2,0,.3.1.5.2.3.1.4,0,.3-.1.3.2.6.3.9.4-.3,0-.4,0-.9-.1,0,0,.1,0,.4.1.2,0,.5.2.8.3.3,0,.6.2.8.2.2,0,.4,0,.4,0h-.2s1,.1,1,0c-.6,0-1.4-.2-1.2-.3,1.1.1,1.7.3,2.7.1,0,.3.3.3,0,.4,0,0,0,0-.1,0-.2,0-.5.1-.8.2-.3,0-.7,0-1,0,.5,0,.9.1,1.2.1.3,0,.5,0,.7,0,.2,0,.4,0,.6,0,.2,0,.6,0,1,0,0,0-.3.2-.7.2-.4,0-.8,0-.6.1,0,0-.1,0-.3,0-.2,0-.4,0-.6,0-.4,0-.9,0-.9,0,.3,0,.3,0,.5,0-.3,0-.6,0-.8,0-.2,0-.4,0-.6,0-.4,0-.7-.1-1.2-.2-.6-.2.9.1.3,0,.5.1,1.1,0,1.4,0-1.4-.3-.8,0-2-.2,0,0-.2,0-.4-.2-.2,0-.4-.2-.4-.2-.5-.2.1.1.2.2-.6-.2-.8-.4-1.3-.6.1.1.4.2.3.3-.7-.4-1.5-.7-2-1.4.3.3-.6,0-.9-.3,0,0,0,0,.2.2.1.1.3.2.4.4.3.3.6.5.6.5.5.2.9.4,1.3.6.4.2.8.3,1.2.5.8.3,1.6.5,2.7.6h-.1c.4.2.8.2,1.1.2.3,0,.6,0,.8,0,.5,0,.8-.1,1.1-.2.6-.2,1.2-.4,2.6-.7.1.2,1.3-.4,1.2-.2-.8.3-.7.3-.4.3.2-.1.4-.2.7-.4.2-.1.5-.3,1-.5-.3.2.5,0-.3.4.3-.1.6-.2.8-.4.2-.1.4-.3.6-.4.4-.2.7-.5.9-.7.4-.3.7-.5.8-.7.2-.1.2-.2.3-.2,0,0,.2,0,.3-.2,0,0,.2-.1.3-.3.1-.1.3-.3.5-.5l-.2.3s.2-.3.5-.5c.2-.2.4-.5.4-.5,0,0-.4.3-.4.3,0,0,0,0,.2-.2,0-.1.2-.3.3-.5.1-.2.2-.3.3-.5,0-.1.1-.2.1-.2.4-.9-.3.3-.3,0v.3c-.3.2-.5.6-.7.8-.2.2-.4.4-.5.4.7-.8.5-.7.7-1,0,0-.1.2-.3.4-.2.2-.3.4-.3.4l-.3.2c-.3.4-.7.6-1,.9-.1.1-.3.3-.4.4-.1.1-.2.2-.3.3.2,0,.3-.2.4-.3.1-.1.2-.2.4-.3,0,.1-.2.2-.3.4-.1.1-.3.3-.5.5-.2.2-.4.3-.7.5-.2.2-.5.3-.8.5,0,0-.4.2-.3,0,0,0,.2-.1.3-.2-.1,0,.4-.4-.6,0,.3-.3.9-.9.9-.9.3-.2.6-.4.9-.6.1-.1.3-.2.4-.3.1-.1.2-.2.4-.3h0c.2-.1.5-.4.8-.7.2-.3.5-.5.5-.5.2-.2.8-1,.1-.3,0,0,0,0,.2-.2,0-.1.2-.3.3-.4.1-.2.2-.3.3-.4,0-.1.1-.2.1-.2,0,.3.9-.9.2.5,0,0,.3-.5.8-1.3,0,0,0,0,0,0,0,0,0,0,0,.1-.1.2-.2.3-.2.3,0,.3,0,.3.2,0,.2-.2.4-.5.6-.9v-.2c.4-.6.6-1,.9-2,0,0,0-.1,0-.4,0-.2,0-.5,0-.8,0-.3,0-.6,0-.8,0-.2,0-.4,0-.4,0-.2,0-.4,0-.7.1-.3.1-1.3.3-.9,0,0,0,.2,0,.7,0,0,0,0,0,0,0,.1.2.2.3-.3,0,.6-.1.6-.1,1v-.5c0,.4,0,.9,0,1.4,0,.4,0,.7,0,.8,0-.3.2-.8.3-1.2,0,.2,0,.5,0,.6,0,.2,0,.2,0,0,0-.2.1-1.8-.1-.7,0-.2,0-.5,0-.8,0-.3,0-.6,0-.8,0,.6.1.2.2.4,0-.6-.2-.5-.2-.6,0-.2,0-.4,0-.6ZM41.5,233.9c0,0,0,0-.1,0,0,0,0,0,.1,0ZM65.3,218.7v.5c0-.2,0-.4,0-.5ZM57.3,211.1s0,0-.1,0c1,.6,1.1.7,1.8,1.3h-.3s.2.1.4.3c.2.2.5.5.7.8.2.2.5.5.6.8h-.1s0,.2.2.5c.1.3.3.6.4,1,0,0-.1-.2-.2-.3-.1-.2-.3-.4-.4-.6,0,.1.2.3.2.6,0,0,0,0-.1-.2,0-.1-.2-.3-.3-.4-.1-.1-.2-.3-.3-.4,0-.1-.2-.2-.2-.2.3.6.6.6.9,1.4-.2,0-.2,0-.7-.7-.4-.7.1,0,0-.4-.2-.2-.3-.4-.4-.6,0-.2-.2-.4-.5-.5-.2-.3-.3-.4-.3-.5,0,0,0-.1,0-.2.6.5-.1-.4.6.3-.2-.3-.4-.4-.5-.5-.1,0-.2-.1-.5-.3v-.2c0-.1-.2-.2-.4-.4-.2-.1-.4-.3-.6-.4-.2-.1-.5-.3-.7-.4-.2-.1-.5-.2-.7-.2.6.4-.4,0-.3,0,.2,0,1,.3,1,.4-.3-.1-.7-.3-1.1-.4-.4-.1-.8-.2-1-.3,0,0,0,0,.2,0,0,0,.2,0,.3.1.2,0,.5.2.5.2-.2,0-.6,0-1,0-.4,0-.7,0-.7,0-.4-.1-1-.1-1.2-.2,0,0,0,0,.1,0,0,0,.2,0,.3,0,.2,0,.4,0,.4,0h.3c0,.1.4,0,.4,0-.5-.2-1.5-.3-1.8-.4,1.2,0,3,0,5.2.9ZM45.3,228h0c-.6-.8-1.1-1.4-1.6-2.1-.1-.2-.2-.3-.3-.5-.1-.2-.2-.4-.3-.5,0-.2-.2-.4-.3-.6,0-.2-.1-.4-.2-.7.2.2.4.9.4.8-.3-1.1-.6-.8-.7-2,.4,1.5-.1-.8.2.3-.3-.9-.4-1.9-.3-2.8,0-.5,0-.9.2-1.3,0-.4.2-.8.2-1.1-.2.3,0-.6,0-.6.1-.3.1-.2,0,0,.3-.6.4-.7.5-.5,0,0,0,0,0,.2,0,.1-.1.3-.1.4,0,.3-.2.7-.2.7.2-.4.3-.6.4-.9h0c0-.1.1-.3.2-.5,0-.2,0-.2,0-.2,0-.2.1-.5.2-.7,0-.1,0-.3.1-.4,0-.1.1-.3.2-.5h0s0,0,.1-.2c0-.1.2-.3.3-.4.2-.3.5-.6.5-.6v.2c0,0,.5-.7.5-.7,0,.1.2-.1.3,0,.1,0,.3-.2.5-.3.2-.1.4-.3.6-.5.4-.4,1-.8,1.5-1h-.1c.3,0,.8-.3,1.4-.5.1,0,.3,0,.4-.1.2,0,.3,0,.5,0,.2,0,.3,0,.4,0,.1,0,.3,0,.4,0h0c-.3,0-.5.2-.5.2,0,0,0,0,.1,0-.2,0-.5.2-.7.2-.3,0-1.2.4-1.3.4.3-.1.5-.2.5-.2,0,0,0,0-.2,0-.6.4-1.8.9-1.6,1.1-.8.6-.3.1-.9.5-.1,0,0-.2.2-.4,0,0,0,0,0,0,0,0-.2.1-.2.2-.2.2-.5.4-.7.7-.2.3-.5.5-.6.7-.2.2-.3.4-.3.4,0,0,.3-.2.6-.5.3-.2.5-.4.2,0-.1.2,0,.3-.5,1,0,0,0,0,0-.2-.2.4-.3.4-.6.8-.2,0,.2-.5.3-.8-.1.3-.3.6-.5.8h0c0,0,0,0,0,0,0,0,0,.2-.1.3-.1.2-.2.4-.2.4,0,.4.3-.7.4-.7l-.2.6c0,.2-.2.4-.3.7,0,.3-.2.6-.3.9-.2.6-.3,1.2-.5,1.5-.2.8,0,.5.1.7,0,.5,0,1,0,1.4,0,0,.2.5.3.5,0,0,0,.2,0,.4,0,.2,0,.4,0,.4.2.2.1,0,0-.3,0-.3-.1-.7,0-.8.1-.4.1.5.2.3-.1-.6-.2-.6-.2-.9,0-.3,0-.5,0-.5,0,.9.1.5.2,1.3h0c0,0,.1.3.2.6,0,.3.2.7.2.9,0,.4,0,.3-.2,0,0-.3-.2-.6-.2-.6,0,0,0,.2.1.5,0,.1,0,.2.1.3,0,0,0,.1,0,.1-.2-.4-.2,0-.4-.5,0,.3.1.5.2.6,0,.2,0,.3.2.6-.2-.3-.2,0,0,.2.1.3.2.7.2.8-.2-.3-.4-.8-.4-1.2,0-.4-.1-.6,0-.6,0,0-.2-.8-.2-1.2l-.3-.5c0,.6.3,1.3.1,1.1,0,0,0,.2.1.4,0,0,0,.2.1.3,0,0,0,.1,0,.1-.3-.3-.3-.5-.4-.7,0-.2-.2-.3-.3-.7,0,.8.3,1.5.5,2.1.3.6.6,1.1.8,1.7v-.2c.2.6.5,1,.7,1.3.3.3.4.6.6.9.3.4.4.7.5,1.1-.3-.3-.6-.5-.8-.8ZM57.6,230.6c-.2,0-.7.3-.7.2,0,0-.4.3.4,0l-.5.2s0,0,.1,0c-.2,0-.3.1-.5.1-.2,0-.6,0-1,0,0,0,.3-.1.5-.1-.3,0-.5,0-.7,0-.2,0-.4,0-.6,0,.8,0,.4,0,.6.2-.5,0-1.3,0-1.6,0-.7,0-1.2-.3-.8-.4-.4,0-.9-.1-1.4-.1.9,0,0,.3,1.1.3.3.2-1,0-1.5-.3.3,0,0,0,.2-.1-.9-.2-.5,0,0,.3,0,0-.3,0-.5,0-.1,0-.3,0-.4,0,0,0-.2,0-.2,0,0,0,0,0,0,0-.3-.1-.7-.2-1-.3,0-.2,0-.3.2-.2,0,0-.1,0-.2-.1-.1,0-.2-.2-.2-.2,0,0,0,0,.1,0,0,0,.2,0,.3.1.2,0,.4.1.4.1-.1-.1-.4-.2-.6-.3-.2,0-.5-.2-.6-.3-.2-.1,0,0,.4,0,.4.2.9.3,1.2.3.1,0,.3,0,.4.1.2,0,.3,0,.4.1.2,0,.4.2.4.2,0,0,.1,0,.3,0,.2,0,.4,0,.6,0,.2,0,.5,0,.7,0,.2,0,.4,0,.6,0,.7,0,.9,0,1.1.1.1,0,.2,0,.4,0,.1,0,.3,0,.6,0,0,0-.4,0-.4,0,.5,0,.9-.1,1.3-.2.2,0,.4,0,.6-.1.2,0,.5,0,.7-.2,0,0,0,0-.2.1-.2,0-.4,0-.5.1,0,0,.6,0,.6,0ZM57.9,230.7c0,0,0-.1.6-.3,0,0,0,0,.1,0-.2,0-.5.2-.7.3ZM59.5,230.6h.2c-.4.1-.7.4-.9.4,0,0,0,0,.3-.2.2-.1.4-.3.6-.5.2-.2.5-.4.7-.6.2-.2.4-.3.5-.4.3-.2.6-.4.9-.7.3-.2.5-.4.7-.6l-.2.2c-1.4,1.1-1.9,1.4-1.6,1.4.1,0,.4,0,.7-.3.2,0,.4-.2.6-.3.2-.1.4-.3.7-.4-.9.8-2.1,1.5-3.3,2ZM64.2,226c0,.2-.1.3-.4.5,0,.2.2,0,.3-.2,0,0,0,.1,0,.2-.2.2-.3.4-.5.6-.2.2-.3.3-.3.2,0,0,.1-.3.3-.5.1-.2.3-.5.3-.7.1-.2.7-1.1.7-.9-.2.3-.3.5-.3.7ZM66.2,222.5v-.2c0-.2,0-.2.1-.3,0,.2,0,.3-.1.5ZM66.7,221c0-.2,0-.4,0-.4,0,.2,0,.3-.1.5,0,0,0,0,0,0Z"/>
      <path class="st0" d="M51.5,230.6s0,0,0,0c0,0,0,0,0,0Z"/>
      <path class="st0" d="M42.6,222.7s0,0,0,.1c0,0,0,0,0-.1Z"/>
      <path class="st0" d="M58.8,214.3s0,0,0,0c0,0,0,0,0,0Z"/>
      <path class="st0" d="M68.8,215.5c0,.3,0,.6,0,.5-.2-.6-.2-1.1-.2-1.5,0-.4,0-.8-.3-1.3v.4c-.2-.3-.5-1.1-.7-1.5,0-.1-.4-1.3,0-.5-.3-.9-.7-1.2-1-1.6-.3-.4-.7-.7-1.3-1.6.3.4.4.7.6.9.1.2.3.4.5.7-.5-.7-.1,0-.3,0-.2-.5-1.2-1.8-.4-.9,0-.1-.2-.3-.3-.5-.1-.2-.3-.4-.5-.5-.3-.3-.6-.7-.7-.7,0,0,.1.1.2.2,0,.1.2.2.2.2-.3-.4-.7-.7-1-.9-.2-.1-.3-.2-.4-.3-.1,0-.3-.1-.4-.2.2.2.4.3.6.4.2.1.3.2.4.3.3.2.6.4,1.1,1,1,1.3-.3-.2.2.7,0,0,0,0,.1.1,0,0,.2.2.3.3.2.2.4.4.4.4l-.3-.5c.1,0,.4.4.6.7.2.4.4.7.5.6.1.3.2.5.3.7,0,.2.2.4.2.6.1.4.3.8.4,1.4.2.3,0-.2,0-.5.2.6.4.6.6,1.5,0,.4.2,0,0-.7.2.6.4,1.3.5,2v-.8s.1.8.1.8v-.7c0,.4.1.8.1,1.2,0,.4,0,.8.1,1.1,0,.5,0,1,0,1.4.1-1,.3-1.7,0-2.9,0,0,0,0,0,0Z"/>
      <path class="st0" d="M68.7,215.2s0,0,0,0c0,0,0,0,0,0Z"/>
      <path class="st0" d="M68.8,215.5c0-.1,0-.3,0-.3,0,.1,0,.2,0,.3Z"/>
      <path class="st0" d="M54.1,227.5s0,0,0,0c0,0,0,0,0,0Z"/>
      <path class="st0" d="M50.2,226.2c0,0,.3,0,.5.2.2,0,.4.1.3,0-.3,0-.8-.3-.8-.2Z"/>
      <path class="st0" d="M50.4,225.9c0,0,0,0-.3,0,0,0,0,0,.1,0,0,0,.2,0,.2.1,0,0,.2,0,.2.1,0,0,.1,0,.1,0,0,0-.1,0-.2-.1-.1,0-.2-.1-.2-.1Z"/>
      <path class="st0" d="M49,223.8c-.1-.1-.3-.2-.4-.4,0,.1.1.3.3.4.1.2.3.4.5.5.4.3.7.6.8.5-.2,0-.3-.1-.5-.2-.2,0-.3-.2-.5-.4,0-.2.2,0,.4.2.2.2.5.4.7.3-.4-.3-.7-.5-.9-.6-.1,0-.3-.2-.4-.3Z"/>
      <path class="st0" d="M50.2,224.6s.1,0,.2.1c.1,0,.2.1.2.1,0,0,0,0,0,0l-.5-.2h0Z"/>
      <path class="st0" d="M62.6,221.1c0,.2-.1.4-.2.7.1,0,.1-.5.2-.7Z"/>
      <path class="st0" d="M34.9,226.1c.2.4.3.7.3.7-.1-.4-.3-.8-.4-1.2,0,.2,0,.3.1.5Z"/>
      <path class="st0" d="M34.1,222.1c0,.1,0,.3,0,.6,0,.5.1,1.1.3,1.7,0,.2,0,.3.1.5-.2-.8-.3-1.8-.5-3,0,0,0,0,0,.2Z"/>
      <path class="st0" d="M53.6,209.2c.7,0,1.2,0,1.7.2.5,0,1,.2,1.7.5-.4-.2-.8-.4-1.1-.5-.3,0-.6-.1-.9-.2-.6,0-1.1,0-1.9-.2l.6.2Z"/>
      <path class="st0" d="M53.7,208.7c-.3,0-.6,0-.5.1.5,0,.6,0,.7,0,.1,0,.2,0,.6,0l-.4-.2c.1.1-.2,0-.5.1Z"/>
      <polygon class="st0" points="58.2 213.4 57.9 213.2 58.1 213.4 58.2 213.4"/>
      <path class="st0" d="M47.8,209.6s-.2,0-.3.1c-.2,0-.3.2-.3.2,0,0,.1,0,.3-.1.1,0,.3,0,.3,0h.1Z"/>
      <path class="st0" d="M58,213.7s.2.1.2.1c0,0,0,0,0,0,0,0-.1-.1-.2-.2-.1-.1-.3-.2-.3-.2l.3.4Z"/>
      <path class="st0" d="M54.5,210.8c-.1,0-.7-.2-.5,0,0,0,.4,0,.5,0Z"/>
      <path class="st0" d="M43.7,212.9h0s.4-.6.4-.6h0s-.4.6-.4.6Z"/>
      <path class="st0" d="M50.2,211.4c-.2,0-.3.1,0,0,.5-.1.4-.1.3-.2,0,0-.1,0-.3.1Z"/>
      <path class="st0" d="M44.4,214.7c.1-.2.3-.4.4-.6-.2.2-.3.4-.4.6Z"/>
      <path class="st0" d="M43.3,217.5v-.2c0,.3,0,.1,0,0,0-.2,0-.2,0-.3,0,0,0-.1,0-.2,0,0,0,.2,0,.2-.1.4-.2.6,0,.5Z"/>
      <path class="st0" d="M43.8,228.3c-.6-.8-.6-.6-1-1.1.7.9.7,1.2,1.7,2.1-.7-.8-.8-1-.7-1.1Z"/>
      <path class="st0" d="M42.8,227.2c0-.1-.1-.2-.2-.3,0,.1.1.3.2.3Z"/>
      <polygon class="st0" points="45.5 215.4 45.5 215.2 45.6 214.9 45.5 215.4"/>
      <path class="st0" d="M45.2,230c-.1,0,.6.6.5.4-.2-.1-.4-.3-.5-.4Z"/>
      <path class="st0" d="M44.5,226.4c0-.1-.3-.6-.4-.8.2.3.1.6.4.8Z"/>
      <path class="st0" d="M48.2,231.3c-.3,0-.7,0,.3.3-.2,0-.4-.3-.3-.3Z"/>
      <polygon class="st0" points="45 227.1 45.5 227.7 45.4 227.6 45 227.1"/>
      <path class="st0" d="M45,225.3c.1.3.2.5.3.5,0,0,0,0,0,0,0,0,0-.2.3.2-.3-.5-.3-.8-.3-.8-.4-.5.3,1-.4.1Z"/>
      <path class="st0" d="M52.8,231c0,0,.1,0,.2,0,0,0-.2,0-.2,0Z"/>
      <path class="st0" d="M49,228.7c-.2-.1-.4-.3-.7-.4-.2-.1-.4-.2-.5-.3h.1c0,.1-.8-.3-.8-.3.5.3,1.9,1.2,1.9,1Z"/>
      <path class="st0" d="M59.3,232.4l-.5.2.6-.2c-.2,0,0-.2-.2,0Z"/>
      <path class="st0" d="M51.1,230.7c-.3-.1-.6-.1-.9-.2,0,.1.9.3.9.2Z"/>
      <path class="st0" d="M62.5,230.5h0s-.7.5-.7.5c0,0,.8-.5.8-.5Z"/>
      <polygon class="st0" points="65.5 228 65.6 227.9 66 227.3 65.9 227.4 65.5 228"/>
      <path class="st0" d="M59.3,228.9l.8-.4c-.3,0-.2.1-.7.3l.4-.4c-.4.2-.6.5-.5.5Z"/>
      <path class="st0" d="M56.9,203.3c-.1,0-.2,0-.2,0,0,0,.1,0,.2,0Z"/>
      <path class="st0" d="M60.1,203.8l-.7-.3s0,0-.1,0c0,0-.1,0-.1,0,0,0,0,0,.4,0-.3-.1-1.4-.5-1.3-.4,0,0-.2,0-.4-.1-.2,0-.5-.2-.8-.3-.6-.2-1.2-.3-1.2-.3,0,0-.2,0-.2,0,0,0-.1,0,0,0,0,0-.2,0-.5,0-.3,0-.7-.1-1.3-.2-.5,0-1.1-.1-1.8,0-.7,0-1.4,0-2.1.1-.3,0-.7,0-1,.1-.3,0-.7.1-1,.2-.3,0-.6.1-.9.2-.3,0-.6.2-.8.3-.2,0-.5.2-.7.2-.2,0-.4.2-.5.2-.3.1-.4.2-.4.2.5-.2,1-.4,1.5-.5-.7.4.9-.3.7,0-.3.2-.9.3-1.2.4,0,.1.4,0,.4.1.7-.2,1-.4,1.4-.5.4-.2.7-.3,1.4-.4,0,.1-.4.3.4,0h-.2c.7,0,1,0,1.2,0,.2,0,.3,0,.8-.2h0c.3,0,.8,0,1.3,0,.5,0,1,0,1.3,0h0c.2,0,.5,0,.6,0,.2,0,.3,0,.4,0,.2,0,.4,0,.5,0,.3,0,.6,0,1.7.4,0,0-.3,0-.5,0-.1,0-.3,0-.4,0,0,0-.2,0-.2,0,.7.3.9.1,1.5.3,0,0,0,.1-.3,0,0,0,.1,0,.2,0,.3,0,.6.1.9.2.3,0,.6.2.9.3.2,0,.4.1.4.1.6.2,0-.2-.1-.2.3,0,1.3.6,1.3.7-.2,0-.7-.3-.4,0,0,0,.2,0,.5.1.1,0,.2,0,.3,0,0,0,.1,0,.1,0,.5.4.3.3-.2.1-.4-.2-1.1-.4-1.4-.5,1.1.6,1.5.6,2.6,1.4-.3-.3-.5-.4-.6-.6,0,0,.3,0,.7.3.3.3.8.6,1.1.9-.4-.4-.1-.3.3,0,0,0,.1,0,.1,0,0,0,0,0,.1,0h0c0,0,0-.1,0-.2-.6-.5-1-.9-1.4-1.2.3.5-1.4-.9-2.1-1.1Z"/>
      <path class="st0" d="M62,205.6c.1,0,.2.2.4.3-.1-.1-.3-.2-.4-.3Z"/>
      <path class="st0" d="M43.8,203.9c0,0,.1,0,.2,0,0,0,0,0,0,0,0,0-.1,0-.1,0Z"/>
      <path class="st0" d="M44.2,203.7c.1,0,.3-.1.3-.1-.2,0-.3.1-.5.2,0,0,.1,0,.2,0Z"/>
      <path class="st0" d="M44.6,203.5s0,0,0,0c0,0,0,0,0,0Z"/>
      <path class="st0" d="M64.1,207s0,0,.2.2c0,0,.2.2.3.4.2.3.5.5.5.5-.3-.4.3.2.4.2,0,0-.3-.3-.6-.7-.1-.2-.3-.3-.4-.5-.1-.1-.2-.2-.2-.2,0,0-.2,0-.2,0Z"/>
      <path class="st0" d="M64,206.6c0,0-.2-.1-.4-.2l.7.7s0-.1-.3-.4Z"/>
      <polygon class="st0" points="61.7 208.3 62.2 208.7 62 208.5 61.7 208.3"/>
      <path class="st0" d="M60,206.7c-.6-.4-.3-.3-.9-.5.1.1.3.2.5.3.2.1.4.2.4.2Z"/>
      <path class="st0" d="M58.8,207.1s.1,0,.3,0c.1,0,.2.1.2.1,0,0-.1,0-.3-.1-.1,0-.3-.1-.3-.1h0Z"/>
      <path class="st0" d="M39.5,207.7c0,0-.2.2-.2.3.1-.1.2-.2.2-.3Z"/>
      <path class="st0" d="M45.1,203.4l-.9.5h0c0,0,0,0-.2,0-.1,0-.2.1-.4.2-.3.1-.5.3-.5.3.3,0,.4-.1.4,0-.7.4-.8.4-.9.4,0,0-.1,0-.7.2,0,0-.4.3-.7.5-.2.1-.4.3-.5.4-.1.1-.2.2-.2.2h0c-.1,0-.2,0-.2,0,0,0-.3.2-.7.6-.4.4-.9.9-1.4,1.5-.2.3-.5.6-.7.9-.1.1-.2.3-.3.4,0,.1-.2.3-.2.4-.3.5-.5.8-.5.8-.5,1,.5-.4.2.3.2-.3.4-.6.6-.8,0-.1.2-.3.3-.4.1-.1.2-.3.3-.4.3-.4.6-.8.6-.9,0,0,0,0,.2,0l.4-.6-.5.5c.2-.3.7-.9,1.2-1.4.6-.5,1.1-.9,1.3-1-.5.4-.6.6-.7.8,0,0-.2.2-.3.3-.2.1-.4.4-.7.7,0,0,.4-.2.1.1,1.5-1.6,3.1-2.6,5.1-3.7-1.7.6,1-.6.4-.5Z"/>
      <path class="st0" d="M34.3,221.6h0s0,0,0,0Z"/>
      <path class="st0" d="M34.2,220.6v.2c0,0,0,0,0-.2,0,0,0-.2,0-.4,0-.3,0-.5,0-.5,0,0,0,.1,0,.3,0,.2,0,.4,0,.6,0,.4,0,.8,0,.8h.1s-.1-.6,0-.8Z"/>
      <path class="st0" d="M34.3,219.9c.1,0,.1-1,.1-1.2h-.3c0,.7.2.7.3.2,0,.8-.2.4,0,.9Z"/>
      <polygon class="st0" points="35.9 212.6 35.8 212.8 36.1 212.3 35.9 212.6"/>
      <path class="st0" d="M35.8,212.8l-.2.5c0,0,.1,0,.2-.1v-.4Z"/>
      <path class="st0" d="M35,214.7c0,.2-.2.5-.2.8l.2-.8Z"/>
      <path class="st0" d="M35.3,214.1h0s-.3.6-.2.6c0-.2.2-.4.3-.6Z"/>
      <path class="st0" d="M35,214.2h.2c0,0,.3-.9.3-.9-.1,0-.3.1-.6.9Z"/>
      <path class="st0" d="M55.2,205.5s-.6,0-.6,0h0s.6,0,.6,0h0Z"/>
      <path class="st0" d="M51.6,205.1c.1,0,.3,0,.3,0-.1,0-.2,0-.3,0Z"/>
      <path class="st0" d="M51.6,205.1c-.2,0-.4,0-.7,0-.3,0-.6,0-.9,0-.6,0-1.3.2-1.7.4-.5.3,0,.4,0,.7,0,0,1.4-.3,1.4-.4-.7,0,.9-.3-.3-.1-.1,0,.4-.3,1-.3,0,.1-.5.1-.2.2.4-.2.5-.1.4-.2.3,0,.5-.1.6-.2.1,0,.3-.1.5-.2Z"/>
      <path class="st0" d="M50.7,206.1c.3,0,.4,0,.6,0,0,0-.3,0-.6,0Z"/>
      <path class="st0" d="M43.1,207.1s.7-.6.7-.5c-.2,0-.3.1-.4.1,0,0-.5.4-.4.4Z"/>
      <path class="st0" d="M43.8,206.5c0,0,.2-.1.3-.2l-.3.2Z"/>
      <path class="st0" d="M43.4,206.6h0s0,0,0,0Z"/>
      <path class="st0" d="M34.2,217.7c0-.2.1-.4.1-.6,0,0-.1.4-.1.6Z"/>
      <path class="st0" d="M38.5,233.2c0-.1-.1-.2-.2-.3,0,0,.2.3.2.3Z"/>
    </g>
    <path class="st0" d="M199.6,249.3H0V0h199.6v249.3ZM5.7,243.7h188.3V5.7H5.7v238Z"/>
  </g>
  <g>
    <path class="st0" d="M257.2,78.1v23.9h37.9v12.3h-37.9v30h-14.6v-78.4h57.3v12.2h-42.7Z"/>
    <path class="st0" d="M307.5,105.1c0-23.2,17.9-40.3,42.2-40.3s42.2,17,42.2,40.3-17.9,40.3-42.2,40.3-42.2-17.1-42.2-40.3ZM377.3,105.1c0-16-11.8-27.6-27.6-27.6s-27.6,11.5-27.6,27.6,11.8,27.6,27.6,27.6,27.6-11.5,27.6-27.6Z"/>
    <path class="st0" d="M458.7,144.3l-16-23c-1,.1-2,.1-3,.1h-17.7v22.9h-14.6v-78.4h32.3c20.6,0,33.4,10.5,33.4,27.9s-6,20.6-16.7,24.8l18,25.8h-15.7ZM439,78.2h-17v31.3h17c12.8,0,19.4-5.8,19.4-15.7s-6.6-15.6-19.4-15.6Z"/>
    <path class="st0" d="M589.9,65.9v78.4h-14.6v-33.6h-40.6v33.6h-14.6v-78.4h14.6v32.4h40.6v-32.4h14.6Z"/>
    <path class="st0" d="M669.8,132.1v12.2h-58.8v-78.4h57.3v12.2h-42.7v20.4h37.9v12h-37.9v21.6h44.3Z"/>
    <path class="st0" d="M686,65.9h14.6v66.1h41v12.3h-55.6v-78.4Z"/>
    <path class="st0" d="M818.8,93.8c0,17.3-12.8,27.9-33.4,27.9h-17.7v22.6h-14.6v-78.4h32.3c20.6,0,33.4,10.5,33.4,27.9ZM804.1,93.8c0-9.9-6.6-15.6-19.4-15.6h-17v31.1h17c12.8,0,19.4-5.7,19.4-15.6Z"/>
    <path class="st0" d="M845.8,140.8l2.7-6.1c2.9,2.1,7.3,3.6,11.5,3.6s6.7-1.6,6.7-3.7c0-6.5-20.3-2-20.3-15s4.8-10.9,14.7-10.9,8.9,1,12.1,3.1l-2.5,6.1c-3.2-1.8-6.6-2.7-9.7-2.7-4.8,0-6.6,1.8-6.6,4,0,6.4,20.3,2,20.3,14.8s-4.8,10.8-14.8,10.8-11.1-1.6-14.2-4Z"/>
    <path class="st0" d="M878.9,139.8c0-2.9,2.1-4.8,4.8-4.8s4.8,1.9,4.8,4.8-2.1,4.9-4.8,4.9-4.8-2-4.8-4.9Z"/>
    <path class="st0" d="M916.8,144.3l-6.7-9.7h-7.4v9.7h-8.1v-35h15.1c9.3,0,15.2,4.8,15.2,12.7s-2.6,9.1-7.2,11l7.8,11.2h-8.7ZM909.2,115.9h-6.6v12.2h6.6c4.9,0,7.4-2.3,7.4-6.1s-2.5-6.1-7.4-6.1Z"/>
    <path class="st0" d="M928.8,139.8c0-2.9,2.1-4.8,4.8-4.8s4.8,1.9,4.8,4.8-2.1,4.9-4.8,4.9-4.8-2-4.8-4.9Z"/>
    <path class="st0" d="M941.1,126.8c0-10.4,8.1-18.1,19.1-18.1s19.1,7.6,19.1,18.1-8.1,18.1-19.1,18.1-19.1-7.7-19.1-18.1ZM971.2,126.8c0-6.6-4.7-11.2-10.9-11.2s-10.9,4.5-10.9,11.2,4.7,11.2,10.9,11.2,10.9-4.5,10.9-11.2Z"/>
    <path class="st0" d="M982,139.8c0-2.9,2.1-4.8,4.8-4.8s4.8,1.9,4.8,4.8-2.1,4.9-4.8,4.9-4.8-2-4.8-4.9Z"/>
    <path class="st0" d="M301.6,230h-39.2l-7.7,18.1h-15l35.3-78.4h14.3l35.4,78.4h-15.2l-7.8-18.1ZM296.8,218.6l-14.8-34.3-14.7,34.3h29.5Z"/>
    <path class="st0" d="M332.3,214v-44.3h14.6v43.7c0,16.1,7.3,23.1,19.9,23.1s19.8-6.9,19.8-23.1v-43.7h14.3v44.3c0,22.9-12.9,35.3-34.3,35.3s-34.4-12.4-34.4-35.3Z"/>
    <path class="st0" d="M435.8,182.1h-26v-12.3h66.6v12.3h-26v66.1h-14.6v-66.1Z"/>
    <path class="st0" d="M487.3,169.8h14.6v78.4h-14.6v-78.4Z"/>
    <path class="st0" d="M516.5,239.9l5-11.3c6.3,5,16.2,8.6,25.9,8.6s17.4-4.4,17.4-10.2c0-16.9-46.6-5.8-46.6-35s10.1-23.4,31.6-23.4,19.3,2.5,26.1,6.9l-4.6,11.3c-7.1-4.1-14.8-6.2-21.6-6.2-12.1,0-17,4.7-17,10.6,0,16.7,46.5,5.8,46.5,34.6s-10.2,23.3-31.7,23.3-24.4-3.8-30.9-9.4Z"/>
    <path class="st0" d="M665.6,248.2v-52c-.1,0-25.9,43-25.9,43h-6.5l-25.8-42.4v51.3h-13.9v-78.4h12l31.1,52,30.6-52h12v78.4c.1,0-13.7,0-13.7,0Z"/>
    <path class="st0" d="M699.9,214v-44.3h14.6v43.7c0,16.1,7.3,23.1,19.9,23.1s19.8-6.9,19.8-23.1v-43.7h14.3v44.3c0,22.9-12.9,35.3-34.3,35.3s-34.4-12.4-34.4-35.3Z"/>
    <path class="st0" d="M782.3,239.9l5-11.3c6.3,5,16.2,8.6,25.9,8.6s17.4-4.4,17.4-10.2c0-16.9-46.6-5.8-46.6-35s10.1-23.4,31.6-23.4,19.3,2.5,26.1,6.9l-4.6,11.3c-7.1-4.1-14.8-6.2-21.6-6.2-12.1,0-17,4.7-17,10.6,0,16.7,46.5,5.8,46.5,34.6s-10.2,23.3-31.7,23.3-24.4-3.8-30.9-9.4Z"/>
    <g>
      <polygon class="st0" points="933.4 217.8 933.5 217.7 933.5 212.8 903.9 212.8 903.9 219.1 923.7 219.1 903.7 243.6 903.6 243.7 903.6 248.6 934.2 248.6 934.2 242.3 913.4 242.3 933.4 217.8"/>
      <path class="st0" d="M942.1,239.9c-2.6,0-4.5,1.9-4.5,4.5s2,4.5,4.5,4.5,4.5-2,4.5-4.5-1.9-4.5-4.5-4.5Z"/>
      <path class="st0" d="M966,227.7c-4.3-1-8-1.9-8-4.8s2.6-4.4,7.2-4.4,6.5,1,9.5,2.7l.4.2,2.3-5.7-.3-.2c-3-2-7.4-3.2-11.8-3.2-6.7,0-14.5,2.8-14.5,10.8s7.1,9.4,12.8,10.7c4.3,1,8,1.9,8,4.9s-2.6,4.2-7.4,4.2-8.5-1.5-11.3-3.8l-.4-.3-2.6,5.8.2.2c3,2.6,8.5,4.3,14,4.3s14.5-2.8,14.5-10.8-7.1-9.3-12.8-10.6Z"/>
      <path class="st0" d="M987.2,239.9c-2.6,0-4.5,1.9-4.5,4.5s2,4.5,4.5,4.5,4.5-2,4.5-4.5-1.9-4.5-4.5-4.5Z"/>
    </g>
  </g>
</svg>